<svg xmlns="http://www.w3.org/2000/svg" width="940" height="540" viewBox="0 0 940 540"><rect width="940" height="540" fill="#f6efe0"/><text x="470.0" y="34" font-size="16" text-anchor="middle" fill="#2f2a26" font-family="Georgia, serif">MadDr.MCs — berserk: the werewolf problem</text><text x="470.0" y="52" font-size="9.5" text-anchor="middle" fill="#2f2a26" font-family="Georgia, serif" font-style="italic">a skirmish runs into the Night; Lupex (fury 0.85) outgrows its leash</text><rect x="70" y="70" width="700" height="290" fill="white" stroke="#2f2a26" stroke-width="1.2"/><rect x="306.5" y="70" width="189.2" height="290" fill="#cfd3e8" opacity="0.45"/><text x="401.1" y="66" font-size="8.5" text-anchor="middle" fill="#2f2a26" font-family="Georgia, serif">☾ Night</text><line x1="278.1" y1="360" x2="372.7" y2="360" stroke="#8c4a3c" stroke-width="3"/><text x="325.4" y="374" font-size="8.5" text-anchor="middle" fill="#8c4a3c" font-family="Georgia, serif">skirmish (combat stress)</text><line x1="70" y1="203.4" x2="770" y2="203.4" stroke="#8c4a3c" stroke-width="0.9" stroke-dasharray="5 3"/><text x="774" y="206.4" font-size="7.5" fill="#8c4a3c" font-family="Georgia, serif">berserk at 0.54</text><line x1="70" y1="360.0" x2="770" y2="360.0" stroke="#2f2a26" stroke-width="0.4" stroke-dasharray="2 4"/><text x="64" y="363.0" font-size="8" text-anchor="end" fill="#2f2a26" font-family="Georgia, serif">0.0</text><line x1="70" y1="215.0" x2="770" y2="215.0" stroke="#2f2a26" stroke-width="0.4" stroke-dasharray="2 4"/><text x="64" y="218.0" font-size="8" text-anchor="end" fill="#2f2a26" font-family="Georgia, serif">0.5</text><line x1="70" y1="70.0" x2="770" y2="70.0" stroke="#2f2a26" stroke-width="0.4" stroke-dasharray="2 4"/><text x="64" y="73.0" font-size="8" text-anchor="end" fill="#2f2a26" font-family="Georgia, serif">1.0</text><polyline points="70.0,360.0 79.5,360.0 88.9,360.0 98.4,360.0 107.8,360.0 117.3,360.0 126.8,360.0 136.2,360.0 145.7,360.0 155.1,360.0 164.6,360.0 174.1,360.0 183.5,360.0 193.0,360.0 202.4,360.0 211.9,360.0 221.4,360.0 230.8,360.0 240.3,360.0 249.7,360.0 259.2,360.0 268.6,360.0 278.1,338.6 287.6,317.2 297.0,295.8 306.5,252.6 315.9,209.4 325.4,166.2 334.9,137.5 344.3,108.8 353.8,84.5 363.2,84.5 372.7,106.3 382.2,128.0 391.6,149.8 401.1,171.5 410.5,193.3 420.0,215.0 429.5,236.8 438.9,258.5 448.4,265.8 457.8,273.0 467.3,280.3 476.8,287.5 486.2,294.8 495.7,302.0 505.1,309.3 514.6,316.5 524.1,323.8 533.5,331.0 543.0,338.3 552.4,345.5 561.9,352.8 571.4,360.0 580.8,360.0 590.3,360.0 599.7,360.0 609.2,360.0 618.6,360.0 628.1,360.0 637.6,360.0 647.0,360.0 656.5,360.0 665.9,360.0 675.4,360.0 684.9,360.0 694.3,360.0 703.8,360.0 713.2,360.0 722.7,360.0 732.2,360.0 741.6,360.0 751.1,360.0 760.5,360.0 770.0,360.0" fill="none" stroke="#8c4a3c" stroke-width="2.6"/><polyline points="70.0,114.3 79.5,144.3 88.9,189.9 98.4,226.4 107.8,214.8 117.3,167.4 126.8,226.2 136.2,255.1 145.7,168.1 155.1,285.0 164.6,274.3 174.1,216.2 183.5,214.0 193.0,233.5 202.4,249.1 211.9,207.3 221.4,266.9 230.8,212.0 240.3,212.0 249.7,190.4 259.2,180.8 268.6,207.2 278.1,178.8 287.6,181.7 297.0,228.0 306.5,245.2 315.9,294.7 325.4,294.7 334.9,294.7 344.3,294.7 353.8,294.7 363.2,294.7 372.7,294.7 382.2,294.7 391.6,294.7 401.1,294.7 410.5,294.7 420.0,294.7 429.5,294.7 438.9,294.7 448.4,294.7 457.8,294.7 467.3,294.7 476.8,294.7 486.2,294.7 495.7,140.6 505.1,113.7 514.6,106.1 524.1,119.1 533.5,169.5 543.0,241.1 552.4,195.3 561.9,131.9 571.4,155.4 580.8,170.2 590.3,168.3 599.7,171.9 609.2,136.9 618.6,107.9 628.1,100.5 637.6,149.8 647.0,139.3 656.5,148.4 665.9,155.0 675.4,218.3 684.9,234.5 694.3,168.1 703.8,142.6 713.2,150.6 722.7,116.2 732.2,132.6 741.6,217.1 751.1,221.3 760.5,239.8 770.0,202.1" fill="none" stroke="#3c6e8c" stroke-width="1.6"/><polyline points="70.0,70.0 79.5,70.0 88.9,70.0 98.4,70.0 107.8,70.0 117.3,70.0 126.8,70.0 136.2,70.0 145.7,70.0 155.1,70.0 164.6,70.0 174.1,70.0 183.5,70.0 193.0,70.0 202.4,70.0 211.9,70.0 221.4,70.0 230.8,70.0 240.3,70.0 249.7,70.0 259.2,70.0 268.6,70.0 278.1,70.0 287.6,70.0 297.0,70.0 306.5,70.0 315.9,70.0 325.4,70.0 334.9,125.0 344.3,180.1 353.8,235.1 363.2,290.1 372.7,345.1" fill="none" stroke="#6e8c3c" stroke-width="1.6"/><polyline points="70.0,70.0 79.5,70.0 88.9,70.0 98.4,70.0 107.8,70.0 117.3,70.0 126.8,70.0 136.2,70.0 145.7,70.0 155.1,70.0 164.6,70.0 174.1,70.0 183.5,70.0 193.0,70.0 202.4,70.0 211.9,70.0 221.4,70.0 230.8,70.0 240.3,70.0 249.7,70.0 259.2,70.0 268.6,70.0 278.1,70.0 287.6,70.0 297.0,70.0 306.5,70.0 315.9,70.0 325.4,70.0 334.9,70.0 344.3,70.0 353.8,70.0 363.2,70.0 372.7,70.0 382.2,70.0 391.6,125.0 401.1,180.1 410.5,235.1 420.0,290.1 429.5,345.1" fill="none" stroke="#8c3c6e" stroke-width="1.6"/><text x="786" y="82" font-size="9" fill="#2f2a26" font-family="Georgia, serif" font-weight="bold">series</text><line x1="786" y1="93" x2="802" y2="93" stroke="#8c4a3c" stroke-width="3.2"/><text x="807" y="96" font-size="8.2" fill="#2f2a26" font-family="Georgia, serif">Lupex rage</text><line x1="786" y1="108" x2="802" y2="108" stroke="#3c6e8c" stroke-width="2.2"/><text x="807" y="111" font-size="8.2" fill="#2f2a26" font-family="Georgia, serif">Lupex loyalty</text><line x1="786" y1="123" x2="802" y2="123" stroke="#6e8c3c" stroke-width="2.2"/><text x="807" y="126" font-size="8.2" fill="#2f2a26" font-family="Georgia, serif">Hound-1 hp</text><line x1="786" y1="138" x2="802" y2="138" stroke="#8c3c6e" stroke-width="2.2"/><text x="807" y="141" font-size="8.2" fill="#2f2a26" font-family="Georgia, serif">Hound-2 hp</text><text x="70" y="400" font-size="11" fill="#2f2a26" font-family="Georgia, serif" font-weight="bold">Outcome</text><text x="70" y="415" font-size="9" fill="#2f2a26" font-family="Georgia, serif">▸ berserk Lupex: ×1.73 power, +5.4 armor — and no friend on the field</text><text x="70" y="429" font-size="9" fill="#2f2a26" font-family="Georgia, serif">▸ Houndmaster: survives at 100 hp</text><text x="70" y="443" font-size="9" fill="#2f2a26" font-family="Georgia, serif">▸ Hound-1: slain by its own packmate</text><text x="70" y="457" font-size="9" fill="#2f2a26" font-family="Georgia, serif">▸ Hound-2: slain by its own packmate</text><text x="70" y="471" font-size="9" fill="#2f2a26" font-family="Georgia, serif">▸ Lupex at dawn: controlled, back under the Houndmaster</text></svg>