<svg xmlns="http://www.w3.org/2000/svg" width="940" height="560" viewBox="0 0 940 560"><rect width="940" height="560" fill="#f6efe0"/><text x="470.0" y="34" font-size="16" text-anchor="middle" fill="#2f2a26" font-family="Georgia, serif">MadDr.MCs — command &amp; rebellion: loyalty over time</text><text x="470.0" y="52" font-size="9.5" text-anchor="middle" fill="#2f2a26" font-family="Georgia, serif" font-style="italic">three-tier chain under one Mastermind; the overlord is assassinated at tick 35</text><rect x="70" y="70" width="700" height="300" fill="white" stroke="#2f2a26" stroke-width="1.2"/><rect x="70" y="235.0" width="700" height="75.0" fill="#f0e2c8" opacity="0.6"/><rect x="70" y="310.0" width="700" height="60.0" fill="#e8cfc8" opacity="0.6"/><line x1="70" y1="70.0" x2="770" y2="70.0" stroke="#2f2a26" stroke-width="0.5" stroke-dasharray="2 3"/><text x="64" y="73.0" font-size="8" text-anchor="end" fill="#2f2a26" font-family="Georgia, serif">1.0</text><line x1="70" y1="235.0" x2="770" y2="235.0" stroke="#2f2a26" stroke-width="0.5" stroke-dasharray="2 3"/><text x="64" y="238.0" font-size="8" text-anchor="end" fill="#2f2a26" font-family="Georgia, serif">waver 0.45</text><line x1="70" y1="310.0" x2="770" y2="310.0" stroke="#2f2a26" stroke-width="0.5" stroke-dasharray="2 3"/><text x="64" y="313.0" font-size="8" text-anchor="end" fill="#2f2a26" font-family="Georgia, serif">rebel 0.20</text><line x1="70" y1="370.0" x2="770" y2="370.0" stroke="#2f2a26" stroke-width="0.5" stroke-dasharray="2 3"/><text x="64" y="373.0" font-size="8" text-anchor="end" fill="#2f2a26" font-family="Georgia, serif">0</text><line x1="425.1" y1="70" x2="425.1" y2="370" stroke="#8c4a3c" stroke-width="1.4" stroke-dasharray="4 3"/><text x="425.1" y="66" font-size="8.5" text-anchor="middle" fill="#8c4a3c" font-family="Georgia, serif">overlord slain</text><text x="420.0" y="394" font-size="9" text-anchor="middle" fill="#2f2a26" font-family="Georgia, serif">tick →</text><polyline points="70.0,113.2 80.1,124.5 90.3,108.9 100.4,78.8 110.6,110.0 120.7,146.3 130.9,201.9 141.0,195.7 151.2,207.8 161.3,227.7 171.4,211.3 181.6,229.2 191.7,221.0 201.9,185.8 212.0,193.4 222.2,210.5 232.3,185.3 242.5,174.6 252.6,187.8 262.8,210.8 272.9,228.0 283.0,239.0 293.2,216.1 303.3,222.9 313.5,216.4 323.6,200.5 333.8,162.2 343.9,169.3 354.1,171.5 364.2,152.4 374.3,164.6 384.5,194.6 394.6,182.1 404.8,199.5 414.9,188.1 425.1,323.1 435.2,323.1 445.4,323.1 455.5,323.1 465.7,323.1 475.8,323.1 485.9,323.1 496.1,323.1 506.2,323.1 516.4,323.1 526.5,323.1 536.7,323.1 546.8,323.1 557.0,323.1 567.1,323.1 577.2,323.1 587.4,323.1 597.5,323.1 607.7,323.1 617.8,323.1 628.0,323.1 638.1,323.1 648.3,323.1 658.4,323.1 668.6,323.1 678.7,323.1 688.8,323.1 699.0,323.1 709.1,323.1 719.3,323.1 729.4,323.1 739.6,323.1 749.7,323.1 759.9,323.1 770.0,323.1" fill="none" stroke="#8c4a3c" stroke-width="1.8"/><text x="283.0" y="235.0" font-size="10" text-anchor="middle" fill="#8c4a3c">?</text><text x="425.1" y="319.1" font-size="10" text-anchor="middle" fill="#8c4a3c">✶</text><polyline points="70.0,119.5 80.1,180.6 90.3,153.7 100.4,177.2 110.6,154.6 120.7,156.1 130.9,167.0 141.0,163.2 151.2,173.2 161.3,192.6 171.4,217.3 181.6,203.5 191.7,190.1 201.9,168.6 212.0,189.4 222.2,176.9 232.3,184.3 242.5,169.5 252.6,173.3 262.8,240.5 272.9,226.8 283.0,180.1 293.2,151.8 303.3,134.7 313.5,208.2 323.6,216.7 333.8,235.2 343.9,191.4 354.1,180.1 364.2,215.4 374.3,190.9 384.5,207.1 394.6,188.8 404.8,217.7 414.9,264.5 425.1,370.0 435.2,370.0 445.4,370.0 455.5,370.0 465.7,370.0 475.8,370.0 485.9,370.0 496.1,370.0 506.2,370.0 516.4,370.0 526.5,370.0 536.7,370.0 546.8,370.0 557.0,370.0 567.1,370.0 577.2,370.0 587.4,370.0 597.5,370.0 607.7,370.0 617.8,370.0 628.0,370.0 638.1,370.0 648.3,370.0 658.4,370.0 668.6,370.0 678.7,370.0 688.8,370.0 699.0,370.0 709.1,370.0 719.3,370.0 729.4,370.0 739.6,370.0 749.7,370.0 759.9,370.0 770.0,370.0" fill="none" stroke="#3c6e8c" stroke-width="1.8"/><text x="262.8" y="236.5" font-size="10" text-anchor="middle" fill="#3c6e8c">?</text><text x="333.8" y="231.2" font-size="10" text-anchor="middle" fill="#3c6e8c">?</text><text x="414.9" y="260.5" font-size="10" text-anchor="middle" fill="#3c6e8c">?</text><text x="425.1" y="366.0" font-size="10" text-anchor="middle" fill="#3c6e8c">✦</text><polyline points="70.0,181.9 80.1,188.2 90.3,229.8 100.4,185.7 110.6,159.3 120.7,190.9 130.9,191.2 141.0,154.3 151.2,137.7 161.3,152.5 171.4,145.2 181.6,202.1 191.7,218.3 201.9,195.1 212.0,183.3 222.2,175.4 232.3,136.7 242.5,177.5 252.6,140.1 262.8,133.2 272.9,135.5 283.0,112.7 293.2,134.2 303.3,144.0 313.5,159.9 323.6,200.1 333.8,172.1 343.9,163.0 354.1,202.0 364.2,224.7 374.3,180.4 384.5,169.3 394.6,169.8 404.8,173.7 414.9,141.8 425.1,133.4 435.2,253.4 445.4,253.4 455.5,253.4 465.7,253.4 475.8,253.4 485.9,253.4 496.1,253.4 506.2,253.4 516.4,253.4 526.5,253.4 536.7,253.4 546.8,253.4 557.0,253.4 567.1,253.4 577.2,253.4 587.4,253.4 597.5,253.4 607.7,253.4 617.8,253.4 628.0,253.4 638.1,253.4 648.3,253.4 658.4,253.4 668.6,253.4 678.7,253.4 688.8,253.4 699.0,253.4 709.1,253.4 719.3,253.4 729.4,253.4 739.6,253.4 749.7,253.4 759.9,253.4 770.0,253.4" fill="none" stroke="#6e8c3c" stroke-width="1.8"/><polyline points="70.0,141.0 80.1,197.2 90.3,183.7 100.4,277.8 110.6,282.5 120.7,274.2 130.9,228.7 141.0,209.1 151.2,228.3 161.3,229.8 171.4,213.6 181.6,197.4 191.7,151.4 201.9,183.8 212.0,182.2 222.2,178.1 232.3,174.4 242.5,192.9 252.6,138.5 262.8,198.4 272.9,150.5 283.0,150.3 293.2,150.1 303.3,162.9 313.5,202.4 323.6,200.7 333.8,200.0 343.9,215.5 354.1,183.6 364.2,156.2 374.3,185.9 384.5,161.3 394.6,179.0 404.8,130.7 414.9,136.3 425.1,142.9 435.2,262.9 445.4,262.9 455.5,262.9 465.7,262.9 475.8,262.9 485.9,262.9 496.1,262.9 506.2,262.9 516.4,262.9 526.5,262.9 536.7,262.9 546.8,262.9 557.0,262.9 567.1,262.9 577.2,262.9 587.4,262.9 597.5,262.9 607.7,262.9 617.8,262.9 628.0,262.9 638.1,262.9 648.3,262.9 658.4,262.9 668.6,262.9 678.7,262.9 688.8,262.9 699.0,262.9 709.1,262.9 719.3,262.9 729.4,262.9 739.6,262.9 749.7,262.9 759.9,262.9 770.0,262.9" fill="none" stroke="#8c3c6e" stroke-width="1.8"/><text x="100.4" y="273.8" font-size="10" text-anchor="middle" fill="#8c3c6e">?</text><polyline points="70.0,159.3 80.1,205.0 90.3,252.9 100.4,283.1 110.6,300.4 120.7,287.0 130.9,273.9 141.0,280.4 151.2,319.7 161.3,319.7 171.4,319.7 181.6,319.7 191.7,319.7 201.9,319.7 212.0,319.7 222.2,319.7 232.3,319.7 242.5,319.7 252.6,319.7 262.8,319.7 272.9,319.7 283.0,319.7 293.2,319.7 303.3,319.7 313.5,319.7 323.6,319.7 333.8,319.7 343.9,319.7 354.1,319.7 364.2,319.7 374.3,319.7 384.5,319.7 394.6,319.7 404.8,319.7 414.9,319.7 425.1,319.7 435.2,319.7 445.4,319.7 455.5,319.7 465.7,319.7 475.8,319.7 485.9,319.7 496.1,319.7 506.2,319.7 516.4,319.7 526.5,319.7 536.7,319.7 546.8,319.7 557.0,319.7 567.1,319.7 577.2,319.7 587.4,319.7 597.5,319.7 607.7,319.7 617.8,319.7 628.0,319.7 638.1,319.7 648.3,319.7 658.4,319.7 668.6,319.7 678.7,319.7 688.8,319.7 699.0,319.7 709.1,319.7 719.3,319.7 729.4,319.7 739.6,319.7 749.7,319.7 759.9,319.7 770.0,319.7" fill="none" stroke="#b07a1f" stroke-width="1.8"/><text x="90.3" y="248.9" font-size="10" text-anchor="middle" fill="#b07a1f">?</text><text x="151.2" y="315.7" font-size="10" text-anchor="middle" fill="#b07a1f">✦</text><polyline points="70.0,120.7 80.1,166.9 90.3,202.1 100.4,195.3 110.6,192.0 120.7,168.1 130.9,181.9 141.0,187.1 151.2,176.3 161.3,166.9 171.4,162.6 181.6,167.4 191.7,194.1 201.9,248.2 212.0,200.1 222.2,241.7 232.3,283.5 242.5,227.3 252.6,225.6 262.8,220.2 272.9,176.7 283.0,185.5 293.2,195.4 303.3,202.4 313.5,182.7 323.6,240.1 333.8,217.3 343.9,226.4 354.1,254.9 364.2,212.1 374.3,214.9 384.5,207.3 394.6,235.4 404.8,224.1 414.9,235.1 425.1,230.9 435.2,224.2 445.4,229.3 455.5,223.9 465.7,161.6 475.8,208.9 485.9,244.0 496.1,194.4 506.2,195.6 516.4,200.9 526.5,215.3 536.7,212.9 546.8,180.1 557.0,173.0 567.1,179.5 577.2,191.6 587.4,204.7 597.5,178.1 607.7,189.8 617.8,174.9 628.0,196.3 638.1,140.3 648.3,185.2 658.4,192.1 668.6,189.6 678.7,191.4 688.8,154.2 699.0,204.4 709.1,140.9 719.3,108.0 729.4,150.4 739.6,168.0 749.7,159.7 759.9,124.8 770.0,122.0" fill="none" stroke="#3c8c7a" stroke-width="1.8"/><text x="201.9" y="244.2" font-size="10" text-anchor="middle" fill="#3c8c7a">?</text><text x="222.2" y="237.7" font-size="10" text-anchor="middle" fill="#3c8c7a">?</text><text x="323.6" y="236.1" font-size="10" text-anchor="middle" fill="#3c8c7a">?</text><text x="354.1" y="250.9" font-size="10" text-anchor="middle" fill="#3c8c7a">?</text><text x="394.6" y="231.4" font-size="10" text-anchor="middle" fill="#3c8c7a">?</text><text x="414.9" y="231.1" font-size="10" text-anchor="middle" fill="#3c8c7a">?</text><text x="485.9" y="240.0" font-size="10" text-anchor="middle" fill="#3c8c7a">?</text><polyline points="70.0,156.6 80.1,160.2 90.3,160.4 100.4,181.5 110.6,186.1 120.7,183.8 130.9,187.5 141.0,204.3 151.2,133.1 161.3,172.1 171.4,191.7 181.6,160.3 191.7,186.8 201.9,166.2 212.0,136.6 222.2,174.7 232.3,192.2 242.5,196.9 252.6,201.8 262.8,172.1 272.9,152.6 283.0,141.3 293.2,176.5 303.3,167.5 313.5,156.0 323.6,168.2 333.8,178.2 343.9,173.8 354.1,167.9 364.2,199.5 374.3,164.2 384.5,137.5 394.6,151.0 404.8,138.0 414.9,138.0 425.1,177.6 435.2,171.6 445.4,200.6 455.5,188.7 465.7,192.2 475.8,211.0 485.9,164.7 496.1,173.0 506.2,193.0 516.4,159.3 526.5,117.2 536.7,172.2 546.8,155.0 557.0,185.2 567.1,191.0 577.2,203.6 587.4,191.6 597.5,220.4 607.7,233.9 617.8,202.6 628.0,196.4 638.1,232.5 648.3,232.1 658.4,223.7 668.6,235.2 678.7,195.9 688.8,200.7 699.0,177.4 709.1,189.2 719.3,198.0 729.4,169.1 739.6,166.8 749.7,141.5 759.9,112.4 770.0,165.2" fill="none" stroke="#7a3c8c" stroke-width="1.8"/><text x="668.6" y="231.2" font-size="10" text-anchor="middle" fill="#7a3c8c">?</text><polyline points="70.0,155.1 80.1,133.2 90.3,132.6 100.4,124.0 110.6,165.7 120.7,206.5 130.9,204.4 141.0,221.0 151.2,244.8 161.3,281.2 171.4,285.1 181.6,306.0 191.7,227.5 201.9,173.9 212.0,157.3 222.2,130.9 232.3,178.3 242.5,185.6 252.6,188.8 262.8,180.5 272.9,177.8 283.0,188.4 293.2,193.7 303.3,188.0 313.5,155.3 323.6,141.7 333.8,135.7 343.9,164.2 354.1,113.8 364.2,114.4 374.3,112.4 384.5,120.0 394.6,155.8 404.8,167.3 414.9,174.1 425.1,159.6 435.2,201.8 445.4,181.7 455.5,159.6 465.7,188.1 475.8,239.8 485.9,252.3 496.1,235.2 506.2,183.2 516.4,158.2 526.5,189.8 536.7,208.9 546.8,199.4 557.0,174.0 567.1,202.9 577.2,192.4 587.4,175.3 597.5,231.6 607.7,225.5 617.8,217.9 628.0,237.9 638.1,255.2 648.3,214.3 658.4,178.7 668.6,188.5 678.7,197.3 688.8,164.5 699.0,189.6 709.1,189.5 719.3,181.0 729.4,214.1 739.6,243.0 749.7,204.6 759.9,218.9 770.0,206.2" fill="none" stroke="#8c4a3c" stroke-width="1.8"/><text x="151.2" y="240.8" font-size="10" text-anchor="middle" fill="#8c4a3c">?</text><text x="475.8" y="235.8" font-size="10" text-anchor="middle" fill="#8c4a3c">?</text><text x="628.0" y="233.9" font-size="10" text-anchor="middle" fill="#8c4a3c">?</text><text x="739.6" y="239.0" font-size="10" text-anchor="middle" fill="#8c4a3c">?</text><text x="786" y="74" font-size="9" fill="#2f2a26" font-family="Georgia, serif" font-weight="bold">units</text><line x1="786" y1="87" x2="802" y2="87" stroke="#8c4a3c" stroke-width="2.4"/><text x="807" y="90" font-size="8.2" fill="#2f2a26" font-family="Georgia, serif">Lt. Vaska</text><line x1="786" y1="102" x2="802" y2="102" stroke="#3c6e8c" stroke-width="2.4"/><text x="807" y="105" font-size="8.2" fill="#2f2a26" font-family="Georgia, serif">Lt. Mordax</text><line x1="786" y1="117" x2="802" y2="117" stroke="#6e8c3c" stroke-width="2.4"/><text x="807" y="120" font-size="8.2" fill="#2f2a26" font-family="Georgia, serif">Grub-1</text><line x1="786" y1="132" x2="802" y2="132" stroke="#8c3c6e" stroke-width="2.4"/><text x="807" y="135" font-size="8.2" fill="#2f2a26" font-family="Georgia, serif">Grub-2</text><line x1="786" y1="147" x2="802" y2="147" stroke="#b07a1f" stroke-width="2.4"/><text x="807" y="150" font-size="8.2" fill="#2f2a26" font-family="Georgia, serif">Snark</text><line x1="786" y1="162" x2="802" y2="162" stroke="#3c8c7a" stroke-width="2.4"/><text x="807" y="165" font-size="8.2" fill="#2f2a26" font-family="Georgia, serif">Grub-4</text><line x1="786" y1="177" x2="802" y2="177" stroke="#7a3c8c" stroke-width="2.4"/><text x="807" y="180" font-size="8.2" fill="#2f2a26" font-family="Georgia, serif">Grub-5</text><line x1="786" y1="192" x2="802" y2="192" stroke="#8c4a3c" stroke-width="2.4"/><text x="807" y="195" font-size="8.2" fill="#2f2a26" font-family="Georgia, serif">Brute-6</text><text x="786" y="220" font-size="7.6" fill="#2f2a26" font-family="Georgia, serif">? waver  ✶ feral  ✦ rebel</text><text x="70" y="426" font-size="11" fill="#2f2a26" font-family="Georgia, serif" font-weight="bold">Final state — who marches under whom</text><text x="70" y="442" font-size="9" fill="#2f2a26" font-family="Georgia, serif">▸ Lt. Vaska (gifted, cmd 0.62) — roams FERAL</text><text x="70" y="457" font-size="9" fill="#2f2a26" font-family="Georgia, serif">▸ Lt. Mordax (gifted, cmd 0.70) — commands Grub-4, Grub-5, Brute-6</text><text x="70" y="472" font-size="9" fill="#2f2a26" font-family="Georgia, serif">▸ Grub-1 (dim, cmd 0.15) — stands alone</text><text x="70" y="487" font-size="9" fill="#2f2a26" font-family="Georgia, serif">▸ Grub-2 (dim, cmd 0.15) — stands alone</text><text x="70" y="502" font-size="9" fill="#2f2a26" font-family="Georgia, serif">▸ Snark (dim, cmd 0.15) — stands alone</text></svg>