<svg xmlns="http://www.w3.org/2000/svg" width="1100" height="862" viewBox="0 0 1100 862"><rect width="1100" height="862" fill="#f6efe0"/><text x="550.0" y="34" font-size="16" text-anchor="middle" fill="#2f2a26" font-family="Georgia, serif">MadDr.MCs — three factions, one engine</text><text x="20" y="56" font-size="12" fill="#2f2a26" font-family="Georgia, serif" font-weight="bold">Exhibit 1 — One genome system, three catalogs: issued tech, grown biotech, stitched flesh</text><g transform="translate(20,64)"><text x="75" y="12" font-size="8" text-anchor="middle" fill="#2f2a26" font-family="Georgia, serif" font-style="italic">human trooper</text><path d="M 18 132 L 132 132" stroke="#2f2a26" stroke-width="0.8" stroke-dasharray="3 3"/><g transform="translate(87.0,98.2) rotate(0.0) scale(0.43) translate(-50,-8)"><rect x="40.8" y="8.0" width="18.4" height="33.2" rx="2.5" fill="#7d8088" stroke="#2f2a26" stroke-width="1.6"/><line x1="40.8" y1="16.3" x2="59.2" y2="16.3" stroke="#2f2a26" stroke-width="0.9"/><line x1="40.8" y1="24.6" x2="59.2" y2="24.6" stroke="#2f2a26" stroke-width="0.9"/><line x1="40.8" y1="32.9" x2="59.2" y2="32.9" stroke="#2f2a26" stroke-width="0.9"/><path d="M 50.0 41.2 L 51.8 77.9" fill="none" stroke="#7d8088" stroke-width="4.8"/><path d="M 50.0 41.2 L 51.8 77.9" fill="none" stroke="#2f2a26" stroke-width="4.8" stroke-opacity="0.25"/><circle cx="50.0" cy="41.2" r="5.1" fill="#2f2a26" stroke="#2f2a26" stroke-width="0.8"/><rect x="42.8" y="77.9" width="18" height="4.5" rx="1.5" fill="#2f2a26"/></g><g transform="translate(97.0,98.2) rotate(0.0) scale(0.43) translate(-50,-8)"><rect x="40.8" y="8.0" width="18.4" height="33.2" rx="2.5" fill="#7d8088" stroke="#2f2a26" stroke-width="1.6"/><line x1="40.8" y1="16.3" x2="59.2" y2="16.3" stroke="#2f2a26" stroke-width="0.9"/><line x1="40.8" y1="24.6" x2="59.2" y2="24.6" stroke="#2f2a26" stroke-width="0.9"/><line x1="40.8" y1="32.9" x2="59.2" y2="32.9" stroke="#2f2a26" stroke-width="0.9"/><path d="M 50.0 41.2 L 51.8 77.9" fill="none" stroke="#7d8088" stroke-width="4.8"/><path d="M 50.0 41.2 L 51.8 77.9" fill="none" stroke="#2f2a26" stroke-width="4.8" stroke-opacity="0.25"/><circle cx="50.0" cy="41.2" r="5.1" fill="#2f2a26" stroke="#2f2a26" stroke-width="0.8"/><rect x="42.8" y="77.9" width="18" height="4.5" rx="1.5" fill="#2f2a26"/></g><ellipse cx="89.0" cy="82.9" rx="14.8" ry="21.8" transform="rotate(9.9 89.0 82.9)" fill="#efe7d4" stroke="#2f2a26" stroke-width="2.2"/><path d="M 81.6 82.9 l 4 -2 l 4 2 l 4 -2 l 4 2" fill="none" stroke="#2f2a26" stroke-width="1"/><path d="M 83.6 67.6 Q 66.8 84.6 71.6 101.5" fill="none" stroke="#2f2a26" stroke-width="4.9" stroke-linecap="round"/><g transform="translate(71.6,103.5) rotate(-28.7) scale(0.33) translate(-50,-92)"><path d="M 50 92 L 66 70 L 80 58" fill="none" stroke="#2f2a26" stroke-width="5.840927587146577" stroke-linejoin="round"/><g transform="rotate(-18 80 58)"><rect x="68.0" y="54.2" width="48.4" height="7.6" fill="#7d8088" stroke="#2f2a26" stroke-width="1.4"/><rect x="114.4" y="56.3" width="9" height="3.4" fill="#2f2a26"/><path d="M 68.0 54.2 l -9 14.6 l 7 0 l 5 -5.8 Z" fill="#7d8088" stroke="#2f2a26" stroke-width="1.2"/><path d="M 80.0 61.8 q 1 5 5 5" fill="none" stroke="#2f2a26" stroke-width="1.4"/><rect x="84.0" y="49.2" width="14" height="4" rx="2" fill="#2f2a26"/><rect x="82.0" y="52.6" width="2.6" height="1.6" fill="#2f2a26"/><rect x="87.0" y="52.6" width="2.6" height="1.6" fill="#2f2a26"/></g></g><path d="M 88.4 67.6 Q 75.2 84.6 83.6 101.5" fill="none" stroke="#2f2a26" stroke-width="4.9" stroke-linecap="round"/><g transform="translate(83.6,103.5) rotate(-28.7) scale(0.33) translate(-50,-92)"><path d="M 50 92 L 66 70 L 80 58" fill="none" stroke="#2f2a26" stroke-width="5.840927587146577" stroke-linejoin="round"/><g transform="rotate(-18 80 58)"><rect x="68.0" y="54.2" width="48.4" height="7.6" fill="#7d8088" stroke="#2f2a26" stroke-width="1.4"/><rect x="114.4" y="56.3" width="9" height="3.4" fill="#2f2a26"/><path d="M 68.0 54.2 l -9 14.6 l 7 0 l 5 -5.8 Z" fill="#7d8088" stroke="#2f2a26" stroke-width="1.2"/><path d="M 80.0 61.8 q 1 5 5 5" fill="none" stroke="#2f2a26" stroke-width="1.4"/><rect x="84.0" y="49.2" width="14" height="4" rx="2" fill="#2f2a26"/><rect x="82.0" y="52.6" width="2.6" height="1.6" fill="#2f2a26"/><rect x="87.0" y="52.6" width="2.6" height="1.6" fill="#2f2a26"/></g></g><circle cx="83.7" cy="52.9" r="9.9" fill="#efe7d4" stroke="#2f2a26" stroke-width="2.2"/><g transform="translate(83.7,54.4) rotate(0.0) scale(0.32) translate(-50,-60)"><rect x="33.7" y="51.8" width="32.6" height="12.4" rx="3" fill="#7d8088" stroke="#2f2a26" stroke-width="1.8"/><circle cx="43.2" cy="58.0" r="4.7" fill="#8c4a3c" stroke="#2f2a26" stroke-width="1.2"/><circle cx="43.2" cy="58.0" r="1.9" fill="#2f2a26" stroke="#2f2a26" stroke-width="0.6"/><circle cx="56.8" cy="58.0" r="4.7" fill="#8c4a3c" stroke="#2f2a26" stroke-width="1.2"/><circle cx="56.8" cy="58.0" r="1.9" fill="#2f2a26" stroke="#2f2a26" stroke-width="0.6"/></g><g transform="translate(83.7,44.5) rotate(-9.5) scale(0.34) translate(-50,-92)"><rect x="41.0" y="87.0" width="18" height="7" rx="2" fill="#7d8088" stroke="#2f2a26" stroke-width="1.6"/><line x1="50" y1="87" x2="51.7" y2="29.8" stroke="#2f2a26" stroke-width="2.5"/><line x1="45.4" y1="72.7" x2="55.4" y2="72.7" stroke="#2f2a26" stroke-width="1"/><line x1="45.9" y1="58.4" x2="55.9" y2="58.4" stroke="#2f2a26" stroke-width="1"/><line x1="46.3" y1="44.1" x2="56.3" y2="44.1" stroke="#2f2a26" stroke-width="1"/><path d="M 51.7 29.8 l 9 -4 l 0 8 Z" fill="#2f2a26"/><circle cx="51.7" cy="29.8" r="1.8" fill="#8c4a3c" stroke="#2f2a26" stroke-width="0.8"/></g></g><g transform="translate(172,64)"><text x="75" y="12" font-size="8" text-anchor="middle" fill="#2f2a26" font-family="Georgia, serif" font-style="italic">human trooper</text><path d="M 18 132 L 132 132" stroke="#2f2a26" stroke-width="0.8" stroke-dasharray="3 3"/><g transform="translate(87.0,98.7) rotate(0.0) scale(0.44) translate(-50,-8)"><rect x="41.8" y="8.0" width="16.5" height="32.4" rx="2.5" fill="#7d8088" stroke="#2f2a26" stroke-width="1.6"/><line x1="41.8" y1="16.1" x2="58.2" y2="16.1" stroke="#2f2a26" stroke-width="0.9"/><line x1="41.8" y1="24.2" x2="58.2" y2="24.2" stroke="#2f2a26" stroke-width="0.9"/><line x1="41.8" y1="32.3" x2="58.2" y2="32.3" stroke="#2f2a26" stroke-width="0.9"/><path d="M 50.0 40.4 L 51.0 75.9" fill="none" stroke="#7d8088" stroke-width="4.9"/><path d="M 50.0 40.4 L 51.0 75.9" fill="none" stroke="#2f2a26" stroke-width="4.9" stroke-opacity="0.25"/><circle cx="50.0" cy="40.4" r="4.5" fill="#2f2a26" stroke="#2f2a26" stroke-width="0.8"/><rect x="42.0" y="75.9" width="18" height="4.5" rx="1.5" fill="#2f2a26"/></g><g transform="translate(97.0,98.7) rotate(0.0) scale(0.44) translate(-50,-8)"><rect x="41.8" y="8.0" width="16.5" height="32.4" rx="2.5" fill="#7d8088" stroke="#2f2a26" stroke-width="1.6"/><line x1="41.8" y1="16.1" x2="58.2" y2="16.1" stroke="#2f2a26" stroke-width="0.9"/><line x1="41.8" y1="24.2" x2="58.2" y2="24.2" stroke="#2f2a26" stroke-width="0.9"/><line x1="41.8" y1="32.3" x2="58.2" y2="32.3" stroke="#2f2a26" stroke-width="0.9"/><path d="M 50.0 40.4 L 51.0 75.9" fill="none" stroke="#7d8088" stroke-width="4.9"/><path d="M 50.0 40.4 L 51.0 75.9" fill="none" stroke="#2f2a26" stroke-width="4.9" stroke-opacity="0.25"/><circle cx="50.0" cy="40.4" r="4.5" fill="#2f2a26" stroke="#2f2a26" stroke-width="0.8"/><rect x="42.0" y="75.9" width="18" height="4.5" rx="1.5" fill="#2f2a26"/></g><ellipse cx="88.9" cy="82.9" rx="15.5" ry="22.3" transform="rotate(10.0 88.9 82.9)" fill="#efe7d4" stroke="#2f2a26" stroke-width="2.2"/><path d="M 81.1 82.9 l 4 -2 l 4 2 l 4 -2 l 4 2" fill="none" stroke="#2f2a26" stroke-width="1"/><path d="M 83.3 67.2 Q 66.7 83.9 71.4 100.5" fill="none" stroke="#2f2a26" stroke-width="5.1" stroke-linecap="round"/><g transform="translate(71.4,102.5) rotate(-28.8) scale(0.34) translate(-50,-92)"><path d="M 50 92 L 66 70 L 80 58" fill="none" stroke="#2f2a26" stroke-width="5.939776100456418" stroke-linejoin="round"/><g transform="rotate(-18 80 58)"><rect x="68.0" y="54.1" width="46.6" height="7.9" fill="#7d8088" stroke="#2f2a26" stroke-width="1.4"/><rect x="112.6" y="56.2" width="9" height="3.5" fill="#2f2a26"/><path d="M 68.0 54.1 l -9 14.9 l 7 0 l 5 -5.9 Z" fill="#7d8088" stroke="#2f2a26" stroke-width="1.2"/><path d="M 80.0 61.9 q 1 5 5 5" fill="none" stroke="#2f2a26" stroke-width="1.4"/><rect x="84.0" y="49.1" width="14" height="4" rx="2" fill="#2f2a26"/><rect x="82.0" y="52.5" width="2.6" height="1.6" fill="#2f2a26"/><rect x="87.0" y="52.5" width="2.6" height="1.6" fill="#2f2a26"/></g></g><path d="M 88.1 67.2 Q 75.1 83.9 83.4 100.5" fill="none" stroke="#2f2a26" stroke-width="5.1" stroke-linecap="round"/><g transform="translate(83.4,102.5) rotate(-28.8) scale(0.34) translate(-50,-92)"><path d="M 50 92 L 66 70 L 80 58" fill="none" stroke="#2f2a26" stroke-width="5.939776100456418" stroke-linejoin="round"/><g transform="rotate(-18 80 58)"><rect x="68.0" y="54.1" width="46.6" height="7.9" fill="#7d8088" stroke="#2f2a26" stroke-width="1.4"/><rect x="112.6" y="56.2" width="9" height="3.5" fill="#2f2a26"/><path d="M 68.0 54.1 l -9 14.9 l 7 0 l 5 -5.9 Z" fill="#7d8088" stroke="#2f2a26" stroke-width="1.2"/><path d="M 80.0 61.9 q 1 5 5 5" fill="none" stroke="#2f2a26" stroke-width="1.4"/><rect x="84.0" y="49.1" width="14" height="4" rx="2" fill="#2f2a26"/><rect x="82.0" y="52.5" width="2.6" height="1.6" fill="#2f2a26"/><rect x="87.0" y="52.5" width="2.6" height="1.6" fill="#2f2a26"/></g></g><circle cx="83.4" cy="52.2" r="10.2" fill="#efe7d4" stroke="#2f2a26" stroke-width="2.2"/><g transform="translate(83.4,53.8) rotate(0.0) scale(0.32) translate(-50,-60)"><rect x="33.4" y="52.1" width="33.1" height="11.9" rx="3" fill="#7d8088" stroke="#2f2a26" stroke-width="1.8"/><circle cx="43.1" cy="58.0" r="4.5" fill="#8c4a3c" stroke="#2f2a26" stroke-width="1.2"/><circle cx="43.1" cy="58.0" r="1.8" fill="#2f2a26" stroke="#2f2a26" stroke-width="0.6"/><circle cx="56.9" cy="58.0" r="4.5" fill="#8c4a3c" stroke="#2f2a26" stroke-width="1.2"/><circle cx="56.9" cy="58.0" r="1.8" fill="#2f2a26" stroke="#2f2a26" stroke-width="0.6"/><circle cx="30.9" cy="58.0" r="1.4" fill="#2f2a26" stroke="#2f2a26" stroke-width="0.6"/><circle cx="69.1" cy="58.0" r="1.4" fill="#2f2a26" stroke="#2f2a26" stroke-width="0.6"/></g><g transform="translate(83.4,43.5) rotate(-9.5) scale(0.34) translate(-50,-92)"><rect x="41.0" y="87.0" width="18" height="7" rx="2" fill="#7d8088" stroke="#2f2a26" stroke-width="1.6"/><line x1="50" y1="87" x2="54.6" y2="34.0" stroke="#2f2a26" stroke-width="2.2"/><line x1="46.2" y1="73.8" x2="56.2" y2="73.8" stroke="#2f2a26" stroke-width="1"/><line x1="47.3" y1="60.5" x2="57.3" y2="60.5" stroke="#2f2a26" stroke-width="1"/><line x1="48.5" y1="47.3" x2="58.5" y2="47.3" stroke="#2f2a26" stroke-width="1"/><path d="M 46.6 34.0 a 8 8 0 0 1 16 0 Z" fill="#7d8088" stroke="#2f2a26" stroke-width="1.4" transform="rotate(-25 54.6 34.0)"/><circle cx="54.6" cy="34.0" r="1.8" fill="#8c4a3c" stroke="#2f2a26" stroke-width="0.8"/></g></g><g transform="translate(324,64)"><text x="75" y="12" font-size="8" text-anchor="middle" fill="#2f2a26" font-family="Georgia, serif" font-style="italic">alien drone</text><path d="M 18 132 L 132 132" stroke="#2f2a26" stroke-width="0.8" stroke-dasharray="3 3"/><path d="M 92.0 102.4 Q 127.0 75.2 130.9 57.7" fill="none" stroke="#2f2a26" stroke-width="4.1" stroke-linecap="round"/><g transform="translate(87.0,100.4) rotate(0.0) scale(0.44) translate(-50,-8)"><path d="M 50 8 L 71.4 30.9 L 54.3 55.2 L 61.8 79.2" fill="none" stroke="#2f2a26" stroke-width="2.69471683387017" stroke-linejoin="round"/><circle cx="71.4" cy="30.9" r="2.2" fill="#2f2a26" stroke="#2f2a26" stroke-width="0.6"/><circle cx="54.3" cy="55.2" r="2.2" fill="#2f2a26" stroke="#2f2a26" stroke-width="0.6"/><path d="M 61.8 79.2 q 5 2 7 6 q -5 -1 -7 1 Z" fill="#2f2a26" stroke="#2f2a26" stroke-width="1" stroke-linejoin="round"/><path d="M 71.4 30.9 l 4 -3" fill="none" stroke="#2f2a26" stroke-width="1" stroke-linejoin="round"/><path d="M 68.6 34.9 l 4 -3" fill="none" stroke="#2f2a26" stroke-width="1" stroke-linejoin="round"/><path d="M 65.7 39.0 l 4 -3" fill="none" stroke="#2f2a26" stroke-width="1" stroke-linejoin="round"/></g><g transform="translate(97.0,100.4) rotate(0.0) scale(0.44) translate(-50,-8)"><path d="M 50 8 L 71.4 30.9 L 54.3 55.2 L 61.8 79.2" fill="none" stroke="#2f2a26" stroke-width="2.69471683387017" stroke-linejoin="round"/><circle cx="71.4" cy="30.9" r="2.2" fill="#2f2a26" stroke="#2f2a26" stroke-width="0.6"/><circle cx="54.3" cy="55.2" r="2.2" fill="#2f2a26" stroke="#2f2a26" stroke-width="0.6"/><path d="M 61.8 79.2 q 5 2 7 6 q -5 -1 -7 1 Z" fill="#2f2a26" stroke="#2f2a26" stroke-width="1" stroke-linejoin="round"/><path d="M 71.4 30.9 l 4 -3" fill="none" stroke="#2f2a26" stroke-width="1" stroke-linejoin="round"/><path d="M 68.6 34.9 l 4 -3" fill="none" stroke="#2f2a26" stroke-width="1" stroke-linejoin="round"/><path d="M 65.7 39.0 l 4 -3" fill="none" stroke="#2f2a26" stroke-width="1" stroke-linejoin="round"/></g><ellipse cx="74.4" cy="99.1" rx="15.3" ry="22.2" transform="rotate(79.4 74.4 99.1)" fill="#efe7d4" stroke="#2f2a26" stroke-width="2.2"/><path d="M 66.7 99.1 l 4 -2 l 4 2 l 4 -2 l 4 2" fill="none" stroke="#2f2a26" stroke-width="1"/><path d="M 54.4 97.8 Q 31.2 114.9 30.0 132.0" fill="none" stroke="#2f2a26" stroke-width="5.1" stroke-linecap="round"/><g transform="translate(30.0,132.0) rotate(0.0) scale(0.34) translate(-50,-92)"><path d="M 50 92 Q 60.0 68.0 68.0 48.0" fill="none" stroke="#2f2a26" stroke-width="8.11842915372443" stroke-linejoin="round"/><circle cx="56.6" cy="83.2" r="1.6" fill="#8c4a3c" stroke="#2f2a26" stroke-width="0.7"/><circle cx="60.2" cy="74.4" r="1.6" fill="#8c4a3c" stroke="#2f2a26" stroke-width="0.7"/><circle cx="68.0" cy="48.0" r="7.1" fill="#8c4a3c" stroke="#2f2a26" stroke-width="1.6"/><path d="M 63.3 48.0 Q 70.6 30.6 83.6 13.3 Q 74.8 30.6 72.7 48.0 Z" fill="#d8c8e8" stroke="#2f2a26" stroke-width="1.6"/><circle cx="83.6" cy="13.3" r="2.2" fill="#d8c8e8" stroke="#2f2a26" stroke-width="1.0"/></g><path d="M 59.2 97.8 Q 39.6 114.9 42.0 132.0" fill="none" stroke="#2f2a26" stroke-width="5.1" stroke-linecap="round"/><g transform="translate(42.0,132.0) rotate(0.0) scale(0.34) translate(-50,-92)"><path d="M 50 92 Q 60.0 68.0 68.0 48.0" fill="none" stroke="#2f2a26" stroke-width="8.11842915372443" stroke-linejoin="round"/><circle cx="56.6" cy="83.2" r="1.6" fill="#8c4a3c" stroke="#2f2a26" stroke-width="0.7"/><circle cx="60.2" cy="74.4" r="1.6" fill="#8c4a3c" stroke="#2f2a26" stroke-width="0.7"/><circle cx="68.0" cy="48.0" r="7.1" fill="#8c4a3c" stroke="#2f2a26" stroke-width="1.6"/><path d="M 63.3 48.0 Q 70.6 30.6 83.6 13.3 Q 74.8 30.6 72.7 48.0 Z" fill="#d8c8e8" stroke="#2f2a26" stroke-width="1.6"/><circle cx="83.6" cy="13.3" r="2.2" fill="#d8c8e8" stroke="#2f2a26" stroke-width="1.0"/></g><circle cx="43.9" cy="93.4" r="10.1" fill="#efe7d4" stroke="#2f2a26" stroke-width="2.2"/><g transform="translate(43.9,94.9) rotate(0.0) scale(0.32) translate(-50,-60)"><circle cx="54.0" cy="60.0" r="7.9" fill="#efe7d4" stroke="#2f2a26" stroke-width="1.6"/><circle cx="56.0" cy="58.8" r="2.5" fill="#2f2a26" stroke="#2f2a26" stroke-width="1.6"/><path d="M 49.5 53.5 l -2.3 -3.3" fill="none" stroke="#2f2a26" stroke-width="1" stroke-linejoin="round"/><path d="M 54.0 52.1 l 0.0 -4.0" fill="none" stroke="#2f2a26" stroke-width="1" stroke-linejoin="round"/><path d="M 58.5 53.5 l 2.3 -3.3" fill="none" stroke="#2f2a26" stroke-width="1" stroke-linejoin="round"/><circle cx="39.3" cy="67.9" r="6.6" fill="#efe7d4" stroke="#2f2a26" stroke-width="1.6"/><circle cx="40.9" cy="66.9" r="2.1" fill="#2f2a26" stroke="#2f2a26" stroke-width="1.6"/><path d="M 35.6 62.4 l -2.3 -3.3" fill="none" stroke="#2f2a26" stroke-width="1" stroke-linejoin="round"/><path d="M 39.3 61.2 l 0.0 -4.0" fill="none" stroke="#2f2a26" stroke-width="1" stroke-linejoin="round"/><path d="M 43.0 62.4 l 2.3 -3.3" fill="none" stroke="#2f2a26" stroke-width="1" stroke-linejoin="round"/><circle cx="51.7" cy="44.9" r="5.5" fill="#efe7d4" stroke="#2f2a26" stroke-width="1.6"/><circle cx="53.0" cy="44.1" r="1.8" fill="#2f2a26" stroke="#2f2a26" stroke-width="1.6"/><path d="M 48.5 40.4 l -2.3 -3.3" fill="none" stroke="#2f2a26" stroke-width="1" stroke-linejoin="round"/><path d="M 51.7 39.4 l 0.0 -4.0" fill="none" stroke="#2f2a26" stroke-width="1" stroke-linejoin="round"/><path d="M 54.8 40.4 l 2.3 -3.3" fill="none" stroke="#2f2a26" stroke-width="1" stroke-linejoin="round"/><circle cx="63.5" cy="74.1" r="4.4" fill="#efe7d4" stroke="#2f2a26" stroke-width="1.6"/><circle cx="64.6" cy="73.5" r="1.4" fill="#2f2a26" stroke="#2f2a26" stroke-width="1.6"/><path d="M 61.1 70.5 l -2.3 -3.3" fill="none" stroke="#2f2a26" stroke-width="1" stroke-linejoin="round"/><path d="M 63.5 69.8 l 0.0 -4.0" fill="none" stroke="#2f2a26" stroke-width="1" stroke-linejoin="round"/><path d="M 66.0 70.5 l 2.3 -3.3" fill="none" stroke="#2f2a26" stroke-width="1" stroke-linejoin="round"/><circle cx="25.3" cy="56.5" r="4.4" fill="#efe7d4" stroke="#2f2a26" stroke-width="1.6"/><circle cx="26.4" cy="55.9" r="1.4" fill="#2f2a26" stroke="#2f2a26" stroke-width="1.6"/><path d="M 22.9 52.9 l -2.3 -3.3" fill="none" stroke="#2f2a26" stroke-width="1" stroke-linejoin="round"/><path d="M 25.3 52.1 l 0.0 -4.0" fill="none" stroke="#2f2a26" stroke-width="1" stroke-linejoin="round"/><path d="M 27.8 52.9 l 2.3 -3.3" fill="none" stroke="#2f2a26" stroke-width="1" stroke-linejoin="round"/><circle cx="73.3" cy="48.2" r="4.4" fill="#efe7d4" stroke="#2f2a26" stroke-width="1.6"/><circle cx="74.3" cy="47.5" r="1.4" fill="#2f2a26" stroke="#2f2a26" stroke-width="1.6"/><path d="M 70.8 44.6 l -2.3 -3.3" fill="none" stroke="#2f2a26" stroke-width="1" stroke-linejoin="round"/><path d="M 73.3 43.8 l 0.0 -4.0" fill="none" stroke="#2f2a26" stroke-width="1" stroke-linejoin="round"/><path d="M 75.7 44.6 l 2.3 -3.3" fill="none" stroke="#2f2a26" stroke-width="1" stroke-linejoin="round"/><circle cx="42.3" cy="83.0" r="4.4" fill="#efe7d4" stroke="#2f2a26" stroke-width="1.6"/><circle cx="43.3" cy="82.4" r="1.4" fill="#2f2a26" stroke="#2f2a26" stroke-width="1.6"/><path d="M 39.8 79.4 l -2.3 -3.3" fill="none" stroke="#2f2a26" stroke-width="1" stroke-linejoin="round"/><path d="M 42.3 78.7 l 0.0 -4.0" fill="none" stroke="#2f2a26" stroke-width="1" stroke-linejoin="round"/><path d="M 44.7 79.4 l 2.3 -3.3" fill="none" stroke="#2f2a26" stroke-width="1" stroke-linejoin="round"/></g><g transform="translate(43.9,84.8) rotate(8.3) scale(0.34) translate(-50,-92)"><ellipse cx="50" cy="92" rx="11" ry="6" fill="#efe7d4" stroke="#2f2a26" stroke-width="2"/><path d="M 45 88 Q 16.3 56.5 26.4 27.5" fill="none" stroke="#2f2a26" stroke-width="2.557487735508169" stroke-linejoin="round"/><circle cx="35.1" cy="75.5" r="1.3" fill="#2f2a26" stroke="#2f2a26" stroke-width="0.5"/><circle cx="28.3" cy="63.2" r="1.3" fill="#2f2a26" stroke="#2f2a26" stroke-width="0.5"/><circle cx="24.5" cy="51.1" r="1.3" fill="#2f2a26" stroke="#2f2a26" stroke-width="0.5"/><circle cx="23.9" cy="39.2" r="1.3" fill="#2f2a26" stroke="#2f2a26" stroke-width="0.5"/><circle cx="26.4" cy="27.5" r="4.8" fill="#8c4a3c" stroke="#2f2a26" stroke-width="1.6"/><path d="M 55 88 Q 83.7 56.5 73.6 27.5" fill="none" stroke="#2f2a26" stroke-width="2.557487735508169" stroke-linejoin="round"/><circle cx="64.9" cy="75.5" r="1.3" fill="#2f2a26" stroke="#2f2a26" stroke-width="0.5"/><circle cx="71.7" cy="63.2" r="1.3" fill="#2f2a26" stroke="#2f2a26" stroke-width="0.5"/><circle cx="75.5" cy="51.1" r="1.3" fill="#2f2a26" stroke="#2f2a26" stroke-width="0.5"/><circle cx="76.1" cy="39.2" r="1.3" fill="#2f2a26" stroke="#2f2a26" stroke-width="0.5"/><circle cx="73.6" cy="27.5" r="4.8" fill="#8c4a3c" stroke="#2f2a26" stroke-width="1.6"/></g></g><g transform="translate(476,64)"><text x="75" y="12" font-size="8" text-anchor="middle" fill="#2f2a26" font-family="Georgia, serif" font-style="italic">alien drone</text><path d="M 18 132 L 132 132" stroke="#2f2a26" stroke-width="0.8" stroke-dasharray="3 3"/><path d="M 92.0 101.2 Q 128.1 73.1 132.2 55.0" fill="none" stroke="#2f2a26" stroke-width="4.0" stroke-linecap="round"/><g transform="translate(87.0,99.2) rotate(0.0) scale(0.43) translate(-50,-8)"><path d="M 50 8 L 71.4 31.9 L 54.3 57.4 L 61.8 82.7" fill="none" stroke="#2f2a26" stroke-width="2.4898650455140126" stroke-linejoin="round"/><circle cx="71.4" cy="31.9" r="2.0" fill="#2f2a26" stroke="#2f2a26" stroke-width="0.6"/><circle cx="54.3" cy="57.4" r="2.0" fill="#2f2a26" stroke="#2f2a26" stroke-width="0.6"/><path d="M 61.8 82.7 q 5 2 7 6 q -5 -1 -7 1 Z" fill="#2f2a26" stroke="#2f2a26" stroke-width="1" stroke-linejoin="round"/><path d="M 71.4 31.9 l 4 -3" fill="none" stroke="#2f2a26" stroke-width="1" stroke-linejoin="round"/><path d="M 68.5 36.2 l 4 -3" fill="none" stroke="#2f2a26" stroke-width="1" stroke-linejoin="round"/><path d="M 65.7 40.4 l 4 -3" fill="none" stroke="#2f2a26" stroke-width="1" stroke-linejoin="round"/><path d="M 62.8 44.7 l 4 -3" fill="none" stroke="#2f2a26" stroke-width="1" stroke-linejoin="round"/></g><g transform="translate(97.0,99.2) rotate(0.0) scale(0.43) translate(-50,-8)"><path d="M 50 8 L 71.4 31.9 L 54.3 57.4 L 61.8 82.7" fill="none" stroke="#2f2a26" stroke-width="2.4898650455140126" stroke-linejoin="round"/><circle cx="71.4" cy="31.9" r="2.0" fill="#2f2a26" stroke="#2f2a26" stroke-width="0.6"/><circle cx="54.3" cy="57.4" r="2.0" fill="#2f2a26" stroke="#2f2a26" stroke-width="0.6"/><path d="M 61.8 82.7 q 5 2 7 6 q -5 -1 -7 1 Z" fill="#2f2a26" stroke="#2f2a26" stroke-width="1" stroke-linejoin="round"/><path d="M 71.4 31.9 l 4 -3" fill="none" stroke="#2f2a26" stroke-width="1" stroke-linejoin="round"/><path d="M 68.5 36.2 l 4 -3" fill="none" stroke="#2f2a26" stroke-width="1" stroke-linejoin="round"/><path d="M 65.7 40.4 l 4 -3" fill="none" stroke="#2f2a26" stroke-width="1" stroke-linejoin="round"/><path d="M 62.8 44.7 l 4 -3" fill="none" stroke="#2f2a26" stroke-width="1" stroke-linejoin="round"/></g><ellipse cx="74.5" cy="98.6" rx="15.0" ry="21.9" transform="rotate(81.4 74.5 98.6)" fill="#efe7d4" stroke="#2f2a26" stroke-width="2.2"/><path d="M 67.0 98.6 l 4 -2 l 4 2 l 4 -2 l 4 2" fill="none" stroke="#2f2a26" stroke-width="1"/><path d="M 54.7 97.9 Q 31.3 115.0 29.9 132.0" fill="none" stroke="#2f2a26" stroke-width="5.0" stroke-linecap="round"/><g transform="translate(29.9,132.0) rotate(0.0) scale(0.33) translate(-50,-92)"><path d="M 50 92 Q 60.0 68.0 68.0 48.0" fill="none" stroke="#2f2a26" stroke-width="7.910521004986735" stroke-linejoin="round"/><circle cx="56.6" cy="83.2" r="1.6" fill="#8c4a3c" stroke="#2f2a26" stroke-width="0.7"/><circle cx="60.2" cy="74.4" r="1.6" fill="#8c4a3c" stroke="#2f2a26" stroke-width="0.7"/><circle cx="63.8" cy="65.6" r="1.6" fill="#8c4a3c" stroke="#2f2a26" stroke-width="0.7"/><circle cx="68.0" cy="48.0" r="6.9" fill="#8c4a3c" stroke="#2f2a26" stroke-width="1.6"/><path d="M 63.2 48.0 Q 70.6 29.6 84.5 11.2 Q 74.9 29.6 72.8 48.0 Z" fill="#d8c8e8" stroke="#2f2a26" stroke-width="1.6"/><circle cx="84.5" cy="11.2" r="2.2" fill="#d8c8e8" stroke="#2f2a26" stroke-width="1.0"/></g><path d="M 59.5 97.9 Q 39.7 115.0 41.9 132.0" fill="none" stroke="#2f2a26" stroke-width="5.0" stroke-linecap="round"/><g transform="translate(41.9,132.0) rotate(0.0) scale(0.33) translate(-50,-92)"><path d="M 50 92 Q 60.0 68.0 68.0 48.0" fill="none" stroke="#2f2a26" stroke-width="7.910521004986735" stroke-linejoin="round"/><circle cx="56.6" cy="83.2" r="1.6" fill="#8c4a3c" stroke="#2f2a26" stroke-width="0.7"/><circle cx="60.2" cy="74.4" r="1.6" fill="#8c4a3c" stroke="#2f2a26" stroke-width="0.7"/><circle cx="63.8" cy="65.6" r="1.6" fill="#8c4a3c" stroke="#2f2a26" stroke-width="0.7"/><circle cx="68.0" cy="48.0" r="6.9" fill="#8c4a3c" stroke="#2f2a26" stroke-width="1.6"/><path d="M 63.2 48.0 Q 70.6 29.6 84.5 11.2 Q 74.9 29.6 72.8 48.0 Z" fill="#d8c8e8" stroke="#2f2a26" stroke-width="1.6"/><circle cx="84.5" cy="11.2" r="2.2" fill="#d8c8e8" stroke="#2f2a26" stroke-width="1.0"/></g><circle cx="44.2" cy="94.0" r="10.0" fill="#efe7d4" stroke="#2f2a26" stroke-width="2.2"/><g transform="translate(44.2,95.5) rotate(0.0) scale(0.32) translate(-50,-60)"><circle cx="54.0" cy="60.0" r="8.3" fill="#efe7d4" stroke="#2f2a26" stroke-width="1.6"/><circle cx="56.1" cy="58.8" r="2.6" fill="#2f2a26" stroke="#2f2a26" stroke-width="1.6"/><path d="M 49.3 53.2 l -2.3 -3.3" fill="none" stroke="#2f2a26" stroke-width="1" stroke-linejoin="round"/><path d="M 54.0 51.7 l 0.0 -4.0" fill="none" stroke="#2f2a26" stroke-width="1" stroke-linejoin="round"/><path d="M 58.7 53.2 l 2.3 -3.3" fill="none" stroke="#2f2a26" stroke-width="1" stroke-linejoin="round"/><circle cx="38.8" cy="68.2" r="6.3" fill="#efe7d4" stroke="#2f2a26" stroke-width="1.6"/><circle cx="40.4" cy="67.2" r="2.0" fill="#2f2a26" stroke="#2f2a26" stroke-width="1.6"/><path d="M 35.3 63.0 l -2.3 -3.3" fill="none" stroke="#2f2a26" stroke-width="1" stroke-linejoin="round"/><path d="M 38.8 61.9 l 0.0 -4.0" fill="none" stroke="#2f2a26" stroke-width="1" stroke-linejoin="round"/><path d="M 42.4 63.0 l 2.3 -3.3" fill="none" stroke="#2f2a26" stroke-width="1" stroke-linejoin="round"/><circle cx="51.7" cy="44.3" r="4.8" fill="#efe7d4" stroke="#2f2a26" stroke-width="1.6"/><circle cx="52.9" cy="43.6" r="1.5" fill="#2f2a26" stroke="#2f2a26" stroke-width="1.6"/><path d="M 49.0 40.3 l -2.3 -3.3" fill="none" stroke="#2f2a26" stroke-width="1" stroke-linejoin="round"/><path d="M 51.7 39.5 l 0.0 -4.0" fill="none" stroke="#2f2a26" stroke-width="1" stroke-linejoin="round"/><path d="M 54.4 40.3 l 2.3 -3.3" fill="none" stroke="#2f2a26" stroke-width="1" stroke-linejoin="round"/><circle cx="64.2" cy="74.8" r="4.6" fill="#efe7d4" stroke="#2f2a26" stroke-width="1.6"/><circle cx="65.3" cy="74.1" r="1.5" fill="#2f2a26" stroke="#2f2a26" stroke-width="1.6"/><path d="M 61.6 71.0 l -2.3 -3.3" fill="none" stroke="#2f2a26" stroke-width="1" stroke-linejoin="round"/><path d="M 64.2 70.2 l 0.0 -4.0" fill="none" stroke="#2f2a26" stroke-width="1" stroke-linejoin="round"/><path d="M 66.7 71.0 l 2.3 -3.3" fill="none" stroke="#2f2a26" stroke-width="1" stroke-linejoin="round"/><circle cx="24.2" cy="56.3" r="4.6" fill="#efe7d4" stroke="#2f2a26" stroke-width="1.6"/><circle cx="25.3" cy="55.7" r="1.5" fill="#2f2a26" stroke="#2f2a26" stroke-width="1.6"/><path d="M 21.6 52.6 l -2.3 -3.3" fill="none" stroke="#2f2a26" stroke-width="1" stroke-linejoin="round"/><path d="M 24.2 51.8 l 0.0 -4.0" fill="none" stroke="#2f2a26" stroke-width="1" stroke-linejoin="round"/><path d="M 26.7 52.6 l 2.3 -3.3" fill="none" stroke="#2f2a26" stroke-width="1" stroke-linejoin="round"/><circle cx="74.4" cy="47.6" r="4.6" fill="#efe7d4" stroke="#2f2a26" stroke-width="1.6"/><circle cx="75.5" cy="46.9" r="1.5" fill="#2f2a26" stroke="#2f2a26" stroke-width="1.6"/><path d="M 71.8 43.9 l -2.3 -3.3" fill="none" stroke="#2f2a26" stroke-width="1" stroke-linejoin="round"/><path d="M 74.4 43.1 l 0.0 -4.0" fill="none" stroke="#2f2a26" stroke-width="1" stroke-linejoin="round"/><path d="M 76.9 43.9 l 2.3 -3.3" fill="none" stroke="#2f2a26" stroke-width="1" stroke-linejoin="round"/></g><g transform="translate(44.2,85.5) rotate(8.8) scale(0.34) translate(-50,-92)"><ellipse cx="50" cy="92" rx="11" ry="6" fill="#efe7d4" stroke="#2f2a26" stroke-width="2"/><path d="M 45 88 Q 19.4 53.3 28.6 21.6" fill="none" stroke="#2f2a26" stroke-width="2.37567592326595" stroke-linejoin="round"/><circle cx="34.4" cy="70.8" r="1.3" fill="#2f2a26" stroke="#2f2a26" stroke-width="0.5"/><circle cx="28.1" cy="54.0" r="1.3" fill="#2f2a26" stroke="#2f2a26" stroke-width="0.5"/><circle cx="26.1" cy="37.6" r="1.3" fill="#2f2a26" stroke="#2f2a26" stroke-width="0.5"/><circle cx="28.6" cy="21.6" r="4.3" fill="#8c4a3c" stroke="#2f2a26" stroke-width="1.6"/><path d="M 55 88 Q 80.6 53.3 71.4 21.6" fill="none" stroke="#2f2a26" stroke-width="2.37567592326595" stroke-linejoin="round"/><circle cx="65.6" cy="70.8" r="1.3" fill="#2f2a26" stroke="#2f2a26" stroke-width="0.5"/><circle cx="71.9" cy="54.0" r="1.3" fill="#2f2a26" stroke="#2f2a26" stroke-width="0.5"/><circle cx="73.9" cy="37.6" r="1.3" fill="#2f2a26" stroke="#2f2a26" stroke-width="0.5"/><circle cx="71.4" cy="21.6" r="4.3" fill="#8c4a3c" stroke="#2f2a26" stroke-width="1.6"/></g></g><g transform="translate(628,64)"><text x="75" y="12" font-size="8" text-anchor="middle" fill="#2f2a26" font-family="Georgia, serif" font-style="italic">the Queen</text><path d="M 18 132 L 132 132" stroke="#2f2a26" stroke-width="0.8" stroke-dasharray="3 3"/><path d="M 122.0 96.0 L 123.7 102.0 L 121.0 107.6 L 114.5 111.7 L 107.7 114.5 L 102.7 117.6 L 98.7 121.5 L 93.8 124.8 L 87.6 126.2 L 81.1 126.1 L 75.0 126.7 L 68.3 128.9 L 60.4 130.9 L 52.6 130.3 L 46.8 126.2 L 43.3 120.7 L 40.4 115.6 L 36.6 111.2 L 33.5 106.5 L 33.3 101.2 L 36.0 96.0 L 38.8 91.5 L 39.2 86.9 L 37.9 81.2 L 38.1 75.1 L 41.9 70.2 L 48.2 67.2 L 54.8 65.0 L 61.0 62.4 L 67.7 59.8 L 75.0 59.6 L 81.8 62.6 L 87.0 67.1 L 91.7 70.5 L 97.4 72.0 L 104.2 73.3 L 109.9 76.2 L 113.3 80.8 L 115.3 85.8 L 118.2 90.7 Z" fill="#efe7d4" stroke="#2f2a26" stroke-width="2.4" stroke-linejoin="round"/><ellipse cx="40.6" cy="131.3" rx="4.9" ry="1.8" fill="#efe7d4" stroke="#2f2a26" stroke-width="1.2"/><ellipse cx="57.0" cy="131.3" rx="4.9" ry="1.8" fill="#efe7d4" stroke="#2f2a26" stroke-width="1.2"/><ellipse cx="73.4" cy="131.3" rx="4.9" ry="1.8" fill="#efe7d4" stroke="#2f2a26" stroke-width="1.2"/><g transform="translate(106.2,88.3) rotate(55.0) scale(0.40) translate(-50,-92)"><path d="M 50 92 Q 60.0 68.0 68.0 48.0" fill="none" stroke="#2f2a26" stroke-width="7.8174805920572545" stroke-linejoin="round"/><circle cx="56.6" cy="83.2" r="1.6" fill="#8c4a3c" stroke="#2f2a26" stroke-width="0.7"/><circle cx="60.2" cy="74.4" r="1.6" fill="#8c4a3c" stroke="#2f2a26" stroke-width="0.7"/><circle cx="63.8" cy="65.6" r="1.6" fill="#8c4a3c" stroke="#2f2a26" stroke-width="0.7"/><circle cx="68.0" cy="48.0" r="6.8" fill="#8c4a3c" stroke="#2f2a26" stroke-width="1.6"/><path d="M 63.1 48.0 Q 70.5 30.5 83.7 13.1 Q 75.0 30.5 72.9 48.0 Z" fill="#d8c8e8" stroke="#2f2a26" stroke-width="1.6"/><circle cx="83.7" cy="13.1" r="2.2" fill="#d8c8e8" stroke="#2f2a26" stroke-width="1.0"/></g><g transform="translate(64.2,69.3) rotate(0.0) scale(0.36) translate(-50,-92)"><ellipse cx="50" cy="92" rx="11" ry="6" fill="#efe7d4" stroke="#2f2a26" stroke-width="2"/><path d="M 45 88 Q 13.6 53.1 24.5 21.2" fill="none" stroke="#2f2a26" stroke-width="2.3901770283491586" stroke-linejoin="round"/><circle cx="34.1" cy="74.2" r="1.3" fill="#2f2a26" stroke="#2f2a26" stroke-width="0.5"/><circle cx="26.6" cy="60.6" r="1.3" fill="#2f2a26" stroke="#2f2a26" stroke-width="0.5"/><circle cx="22.5" cy="47.2" r="1.3" fill="#2f2a26" stroke="#2f2a26" stroke-width="0.5"/><circle cx="21.8" cy="34.1" r="1.3" fill="#2f2a26" stroke="#2f2a26" stroke-width="0.5"/><circle cx="24.5" cy="21.2" r="4.8" fill="#8c4a3c" stroke="#2f2a26" stroke-width="1.6"/><path d="M 55 88 Q 86.4 53.1 75.5 21.2" fill="none" stroke="#2f2a26" stroke-width="2.3901770283491586" stroke-linejoin="round"/><circle cx="65.9" cy="74.2" r="1.3" fill="#2f2a26" stroke="#2f2a26" stroke-width="0.5"/><circle cx="73.4" cy="60.6" r="1.3" fill="#2f2a26" stroke="#2f2a26" stroke-width="0.5"/><circle cx="77.5" cy="47.2" r="1.3" fill="#2f2a26" stroke="#2f2a26" stroke-width="0.5"/><circle cx="78.2" cy="34.1" r="1.3" fill="#2f2a26" stroke="#2f2a26" stroke-width="0.5"/><circle cx="75.5" cy="21.2" r="4.8" fill="#8c4a3c" stroke="#2f2a26" stroke-width="1.6"/></g><g transform="translate(75.0,93.8) rotate(0.0) scale(0.49) translate(-50,-60)"><circle cx="54.0" cy="60.0" r="8.0" fill="#efe7d4" stroke="#2f2a26" stroke-width="1.6"/><circle cx="56.0" cy="58.8" r="2.6" fill="#2f2a26" stroke="#2f2a26" stroke-width="1.6"/><circle cx="38.7" cy="68.3" r="6.1" fill="#efe7d4" stroke="#2f2a26" stroke-width="1.6"/><circle cx="40.2" cy="67.4" r="2.0" fill="#2f2a26" stroke="#2f2a26" stroke-width="1.6"/><circle cx="51.8" cy="44.0" r="4.7" fill="#efe7d4" stroke="#2f2a26" stroke-width="1.6"/><circle cx="52.9" cy="43.3" r="1.5" fill="#2f2a26" stroke="#2f2a26" stroke-width="1.6"/><circle cx="64.4" cy="75.0" r="4.4" fill="#efe7d4" stroke="#2f2a26" stroke-width="1.6"/><circle cx="65.5" cy="74.3" r="1.4" fill="#2f2a26" stroke="#2f2a26" stroke-width="1.6"/><circle cx="23.7" cy="56.3" r="4.4" fill="#efe7d4" stroke="#2f2a26" stroke-width="1.6"/><circle cx="24.8" cy="55.6" r="1.4" fill="#2f2a26" stroke="#2f2a26" stroke-width="1.6"/><circle cx="74.8" cy="47.4" r="4.4" fill="#efe7d4" stroke="#2f2a26" stroke-width="1.6"/><circle cx="75.9" cy="46.7" r="1.4" fill="#2f2a26" stroke="#2f2a26" stroke-width="1.6"/><circle cx="41.7" cy="84.5" r="4.4" fill="#efe7d4" stroke="#2f2a26" stroke-width="1.6"/><circle cx="42.8" cy="83.9" r="1.4" fill="#2f2a26" stroke="#2f2a26" stroke-width="1.6"/></g></g><g transform="translate(780,64)"><text x="75" y="12" font-size="8" text-anchor="middle" fill="#2f2a26" font-family="Georgia, serif" font-style="italic">monster brute</text><path d="M 18 132 L 132 132" stroke="#2f2a26" stroke-width="0.8" stroke-dasharray="3 3"/><path d="M 92.0 100.0 Q 115.4 81.8 118.0 70.1" fill="none" stroke="#2f2a26" stroke-width="4.8" stroke-linecap="round"/><g transform="translate(87.0,98.0) rotate(0.0) scale(0.46) translate(-50,-8)"><path d="M 50 8 Q 49.1 27.3 48.1 48.2 Q 48.1 63.6 49.3 78.2" fill="none" stroke="#2f2a26" stroke-width="10.369749947211817" stroke-linejoin="round"/><path d="M 39.9 78.2 L 42.0 85.2 L 48.5 85.2 L 48.5 78.2 Z" fill="#2f2a26" stroke="#2f2a26" stroke-width="1" stroke-linejoin="round"/><path d="M 50.1 78.2 L 50.1 85.2 L 56.5 85.2 L 58.6 78.2 Z" fill="#2f2a26" stroke="#2f2a26" stroke-width="1" stroke-linejoin="round"/><path d="M 43.0 48.2 l -2 7" fill="none" stroke="#2f2a26" stroke-width="1" stroke-linejoin="round"/><path d="M 45.5 48.2 l -2 7" fill="none" stroke="#2f2a26" stroke-width="1" stroke-linejoin="round"/></g><g transform="translate(97.0,98.0) rotate(0.0) scale(0.46) translate(-50,-8)"><path d="M 50 8 Q 49.1 27.3 48.1 48.2 Q 48.1 63.6 49.3 78.2" fill="none" stroke="#2f2a26" stroke-width="10.369749947211817" stroke-linejoin="round"/><path d="M 39.9 78.2 L 42.0 85.2 L 48.5 85.2 L 48.5 78.2 Z" fill="#2f2a26" stroke="#2f2a26" stroke-width="1" stroke-linejoin="round"/><path d="M 50.1 78.2 L 50.1 85.2 L 56.5 85.2 L 58.6 78.2 Z" fill="#2f2a26" stroke="#2f2a26" stroke-width="1" stroke-linejoin="round"/><path d="M 43.0 48.2 l -2 7" fill="none" stroke="#2f2a26" stroke-width="1" stroke-linejoin="round"/><path d="M 45.5 48.2 l -2 7" fill="none" stroke="#2f2a26" stroke-width="1" stroke-linejoin="round"/></g><ellipse cx="72.7" cy="95.5" rx="18.2" ry="24.6" transform="rotate(76.8 72.7 95.5)" fill="#efe7d4" stroke="#2f2a26" stroke-width="2.2"/><path d="M 63.6 95.5 l 4 -2 l 4 2 l 4 -2 l 4 2" fill="none" stroke="#2f2a26" stroke-width="1"/><path d="M 51.0 93.0 Q 28.1 112.5 27.1 132.0" fill="none" stroke="#2f2a26" stroke-width="5.9" stroke-linecap="round"/><g transform="translate(27.1,132.0) rotate(0.0) scale(0.36) translate(-50,-92)"><path d="M 45.9 72.2 Q 31.0 55.9 15.9 44.6 Q 24.6 60.5 39.5 76.9 Z" fill="#efe7d4" stroke="#2f2a26" stroke-width="2.0" stroke-linejoin="round"/><path d="M 51.3 73.7 Q 44.3 52.7 35.1 36.3 Q 36.6 54.4 43.5 75.4 Z" fill="#efe7d4" stroke="#2f2a26" stroke-width="2.0" stroke-linejoin="round"/><path d="M 56.5 75.4 Q 58.6 53.3 56.8 34.6 Q 50.8 51.7 48.7 73.7 Z" fill="#efe7d4" stroke="#2f2a26" stroke-width="2.0" stroke-linejoin="round"/><path d="M 60.5 76.9 Q 71.4 57.6 77.3 39.7 Q 65.0 52.9 54.1 72.2 Z" fill="#efe7d4" stroke="#2f2a26" stroke-width="2.0" stroke-linejoin="round"/><ellipse cx="50" cy="82" rx="17.4" ry="12.4" fill="#efe7d4" stroke="#2f2a26" stroke-width="2"/><path d="M 37.8 93.4 l 2.5 6 l 2.5 -6 Z" fill="#2f2a26" stroke="#2f2a26" stroke-width="1" stroke-linejoin="round"/><path d="M 43.9 93.4 l 2.5 6 l 2.5 -6 Z" fill="#2f2a26" stroke="#2f2a26" stroke-width="1" stroke-linejoin="round"/></g><path d="M 55.8 93.0 Q 36.5 112.5 39.1 132.0" fill="none" stroke="#2f2a26" stroke-width="5.9" stroke-linecap="round"/><g transform="translate(39.1,132.0) rotate(0.0) scale(0.36) translate(-50,-92)"><path d="M 45.9 72.2 Q 31.0 55.9 15.9 44.6 Q 24.6 60.5 39.5 76.9 Z" fill="#efe7d4" stroke="#2f2a26" stroke-width="2.0" stroke-linejoin="round"/><path d="M 51.3 73.7 Q 44.3 52.7 35.1 36.3 Q 36.6 54.4 43.5 75.4 Z" fill="#efe7d4" stroke="#2f2a26" stroke-width="2.0" stroke-linejoin="round"/><path d="M 56.5 75.4 Q 58.6 53.3 56.8 34.6 Q 50.8 51.7 48.7 73.7 Z" fill="#efe7d4" stroke="#2f2a26" stroke-width="2.0" stroke-linejoin="round"/><path d="M 60.5 76.9 Q 71.4 57.6 77.3 39.7 Q 65.0 52.9 54.1 72.2 Z" fill="#efe7d4" stroke="#2f2a26" stroke-width="2.0" stroke-linejoin="round"/><ellipse cx="50" cy="82" rx="17.4" ry="12.4" fill="#efe7d4" stroke="#2f2a26" stroke-width="2"/><path d="M 37.8 93.4 l 2.5 6 l 2.5 -6 Z" fill="#2f2a26" stroke="#2f2a26" stroke-width="1" stroke-linejoin="round"/><path d="M 43.9 93.4 l 2.5 6 l 2.5 -6 Z" fill="#2f2a26" stroke="#2f2a26" stroke-width="1" stroke-linejoin="round"/></g><circle cx="39.6" cy="87.8" r="11.2" fill="#efe7d4" stroke="#2f2a26" stroke-width="2.2"/><g transform="translate(39.6,89.4) rotate(0.0) scale(0.34) translate(-50,-60)"><ellipse cx="50" cy="58" rx="25.1" ry="17.6" fill="white" stroke="#2f2a26" stroke-width="2.4"/><circle cx="50.0" cy="58.0" r="10.9" fill="#8c4a3c" stroke="#2f2a26" stroke-width="1.6"/><circle cx="50.0" cy="58.0" r="4.9" fill="#2f2a26" stroke="#2f2a26" stroke-width="1.6"/><path d="M 24.9 48.3 Q 50.0 30.2 75.1 48.3" fill="none" stroke="#2f2a26" stroke-width="2" stroke-linejoin="round"/><path d="M 31.2 39.4 l 0 -5" fill="none" stroke="#2f2a26" stroke-width="1.2" stroke-linejoin="round"/><path d="M 43.7 39.4 l 0 -5" fill="none" stroke="#2f2a26" stroke-width="1.2" stroke-linejoin="round"/><path d="M 56.3 39.4 l 0 -5" fill="none" stroke="#2f2a26" stroke-width="1.2" stroke-linejoin="round"/><path d="M 68.8 39.4 l 0 -5" fill="none" stroke="#2f2a26" stroke-width="1.2" stroke-linejoin="round"/></g><g transform="translate(39.6,78.1) rotate(7.7) scale(0.34) translate(-50,-92)"><ellipse cx="50" cy="92" rx="13" ry="6" fill="#efe7d4" stroke="#2f2a26" stroke-width="2"/><path d="M 34.3 90 Q 44.8 55.5 52.1 31.1 Q 60.5 55.5 65.7 90 Z" fill="#efe7d4" stroke="#2f2a26" stroke-width="2.0" stroke-linejoin="round"/><path d="M 36.9 79.8 Q 50.1 76.8 63.3 79.8" fill="none" stroke="#2f2a26" stroke-width="1" stroke-linejoin="round"/><path d="M 39.7 67.7 Q 50.3 64.7 61.0 67.7" fill="none" stroke="#2f2a26" stroke-width="1" stroke-linejoin="round"/><path d="M 42.6 55.5 Q 50.8 52.5 58.9 55.5" fill="none" stroke="#2f2a26" stroke-width="1" stroke-linejoin="round"/><path d="M 45.7 43.3 Q 51.4 40.3 57.0 43.3" fill="none" stroke="#2f2a26" stroke-width="1" stroke-linejoin="round"/></g></g><g transform="translate(932,64)"><text x="75" y="12" font-size="8" text-anchor="middle" fill="#2f2a26" font-family="Georgia, serif" font-style="italic">monster brute</text><path d="M 18 132 L 132 132" stroke="#2f2a26" stroke-width="0.8" stroke-dasharray="3 3"/><path d="M 92.0 97.9 Q 115.4 79.7 118.0 68.0" fill="none" stroke="#2f2a26" stroke-width="4.8" stroke-linecap="round"/><g transform="translate(87.0,95.9) rotate(0.0) scale(0.46) translate(-50,-8)"><path d="M 50 8 Q 50.7 27.3 51.4 48.2 Q 51.4 63.6 50.5 78.3" fill="none" stroke="#2f2a26" stroke-width="10.227780609938149" stroke-linejoin="round"/><path d="M 41.3 78.3 L 43.4 85.3 L 49.7 85.3 L 49.7 78.3 Z" fill="#2f2a26" stroke="#2f2a26" stroke-width="1" stroke-linejoin="round"/><path d="M 51.3 78.3 L 51.3 85.3 L 57.7 85.3 L 59.7 78.3 Z" fill="#2f2a26" stroke="#2f2a26" stroke-width="1" stroke-linejoin="round"/><path d="M 46.2 48.2 l -2 7" fill="none" stroke="#2f2a26" stroke-width="1" stroke-linejoin="round"/><path d="M 48.8 48.2 l -2 7" fill="none" stroke="#2f2a26" stroke-width="1" stroke-linejoin="round"/><path d="M 51.4 48.2 l -2 7" fill="none" stroke="#2f2a26" stroke-width="1" stroke-linejoin="round"/></g><g transform="translate(97.0,95.9) rotate(0.0) scale(0.46) translate(-50,-8)"><path d="M 50 8 Q 50.7 27.3 51.4 48.2 Q 51.4 63.6 50.5 78.3" fill="none" stroke="#2f2a26" stroke-width="10.227780609938149" stroke-linejoin="round"/><path d="M 41.3 78.3 L 43.4 85.3 L 49.7 85.3 L 49.7 78.3 Z" fill="#2f2a26" stroke="#2f2a26" stroke-width="1" stroke-linejoin="round"/><path d="M 51.3 78.3 L 51.3 85.3 L 57.7 85.3 L 59.7 78.3 Z" fill="#2f2a26" stroke="#2f2a26" stroke-width="1" stroke-linejoin="round"/><path d="M 46.2 48.2 l -2 7" fill="none" stroke="#2f2a26" stroke-width="1" stroke-linejoin="round"/><path d="M 48.8 48.2 l -2 7" fill="none" stroke="#2f2a26" stroke-width="1" stroke-linejoin="round"/><path d="M 51.4 48.2 l -2 7" fill="none" stroke="#2f2a26" stroke-width="1" stroke-linejoin="round"/></g><ellipse cx="80.5" cy="81.7" rx="18.2" ry="24.6" transform="rotate(35.5 80.5 81.7)" fill="#efe7d4" stroke="#2f2a26" stroke-width="2.2"/><path d="M 71.4 81.7 l 4 -2 l 4 2 l 4 -2 l 4 2" fill="none" stroke="#2f2a26" stroke-width="1"/><path d="M 66.6 67.6 Q 47.4 99.8 50.1 132.0" fill="none" stroke="#2f2a26" stroke-width="5.9" stroke-linecap="round"/><g transform="translate(50.1,132.0) rotate(0.0) scale(0.36) translate(-50,-92)"><path d="M 46.1 72.7 Q 34.0 58.0 21.2 47.9 Q 27.9 62.2 40.0 76.9 Z" fill="#efe7d4" stroke="#2f2a26" stroke-width="2.0" stroke-linejoin="round"/><path d="M 53.7 74.8 Q 52.2 55.8 47.4 40.3 Q 44.7 55.8 46.3 74.8 Z" fill="#efe7d4" stroke="#2f2a26" stroke-width="2.0" stroke-linejoin="round"/><path d="M 60.0 76.9 Q 69.6 60.4 74.6 45.0 Q 63.5 56.2 53.9 72.7 Z" fill="#efe7d4" stroke="#2f2a26" stroke-width="2.0" stroke-linejoin="round"/><ellipse cx="50" cy="82" rx="16.9" ry="12.0" fill="#efe7d4" stroke="#2f2a26" stroke-width="2"/><path d="M 38.2 93.0 l 2.5 6 l 2.5 -6 Z" fill="#2f2a26" stroke="#2f2a26" stroke-width="1" stroke-linejoin="round"/><path d="M 44.1 93.0 l 2.5 6 l 2.5 -6 Z" fill="#2f2a26" stroke="#2f2a26" stroke-width="1" stroke-linejoin="round"/><path d="M 50.0 93.0 l 2.5 6 l 2.5 -6 Z" fill="#2f2a26" stroke="#2f2a26" stroke-width="1" stroke-linejoin="round"/></g><path d="M 71.4 67.6 Q 55.8 99.8 62.1 132.0" fill="none" stroke="#2f2a26" stroke-width="5.9" stroke-linecap="round"/><g transform="translate(62.1,132.0) rotate(0.0) scale(0.36) translate(-50,-92)"><path d="M 46.1 72.7 Q 34.0 58.0 21.2 47.9 Q 27.9 62.2 40.0 76.9 Z" fill="#efe7d4" stroke="#2f2a26" stroke-width="2.0" stroke-linejoin="round"/><path d="M 53.7 74.8 Q 52.2 55.8 47.4 40.3 Q 44.7 55.8 46.3 74.8 Z" fill="#efe7d4" stroke="#2f2a26" stroke-width="2.0" stroke-linejoin="round"/><path d="M 60.0 76.9 Q 69.6 60.4 74.6 45.0 Q 63.5 56.2 53.9 72.7 Z" fill="#efe7d4" stroke="#2f2a26" stroke-width="2.0" stroke-linejoin="round"/><ellipse cx="50" cy="82" rx="16.9" ry="12.0" fill="#efe7d4" stroke="#2f2a26" stroke-width="2"/><path d="M 38.2 93.0 l 2.5 6 l 2.5 -6 Z" fill="#2f2a26" stroke="#2f2a26" stroke-width="1" stroke-linejoin="round"/><path d="M 44.1 93.0 l 2.5 6 l 2.5 -6 Z" fill="#2f2a26" stroke="#2f2a26" stroke-width="1" stroke-linejoin="round"/><path d="M 50.0 93.0 l 2.5 6 l 2.5 -6 Z" fill="#2f2a26" stroke="#2f2a26" stroke-width="1" stroke-linejoin="round"/></g><circle cx="60.8" cy="54.0" r="11.2" fill="#efe7d4" stroke="#2f2a26" stroke-width="2.2"/><g transform="translate(60.8,55.7) rotate(0.0) scale(0.34) translate(-50,-60)"><ellipse cx="50" cy="58" rx="27.7" ry="19.7" fill="white" stroke="#2f2a26" stroke-width="2.4"/><circle cx="50.0" cy="58.0" r="12.5" fill="#8c4a3c" stroke="#2f2a26" stroke-width="1.6"/><circle cx="50.0" cy="58.0" r="5.6" fill="#2f2a26" stroke="#2f2a26" stroke-width="1.6"/><path d="M 22.3 47.2 Q 50.0 29.4 77.7 47.2" fill="none" stroke="#2f2a26" stroke-width="2" stroke-linejoin="round"/><path d="M 29.2 37.3 l 0 -5" fill="none" stroke="#2f2a26" stroke-width="1.2" stroke-linejoin="round"/><path d="M 43.1 37.3 l 0 -5" fill="none" stroke="#2f2a26" stroke-width="1.2" stroke-linejoin="round"/><path d="M 56.9 37.3 l 0 -5" fill="none" stroke="#2f2a26" stroke-width="1.2" stroke-linejoin="round"/><path d="M 70.8 37.3 l 0 -5" fill="none" stroke="#2f2a26" stroke-width="1.2" stroke-linejoin="round"/></g><g transform="translate(60.8,44.3) rotate(-3.0) scale(0.34) translate(-50,-92)"><ellipse cx="50" cy="92" rx="13" ry="6" fill="#efe7d4" stroke="#2f2a26" stroke-width="2"/><path d="M 34.3 90 Q 43.6 57.4 49.8 34.3 Q 59.3 57.4 65.7 90 Z" fill="#efe7d4" stroke="#2f2a26" stroke-width="2.0" stroke-linejoin="round"/><path d="M 37.4 77.6 Q 50.0 74.6 62.6 77.6" fill="none" stroke="#2f2a26" stroke-width="1" stroke-linejoin="round"/><path d="M 40.5 63.1 Q 50.0 60.1 59.4 63.1" fill="none" stroke="#2f2a26" stroke-width="1" stroke-linejoin="round"/><path d="M 43.6 48.7 Q 49.9 45.7 56.2 48.7" fill="none" stroke="#2f2a26" stroke-width="1" stroke-linejoin="round"/></g></g><text x="20" y="246" font-size="12" fill="#2f2a26" font-family="Georgia, serif" font-weight="bold">Exhibit 2 — Humans: morale breaks, soldiers rout… and rally when the guns stop</text><text x="20" y="260" font-size="12" fill="#2f2a26" font-family="Georgia, serif" font-weight="bold">morale</text><rect x="80" y="272" width="760" height="240" fill="white" stroke="#2f2a26" stroke-width="1.2"/><rect x="208.8" y="272" width="231.9" height="240" fill="#e8cfc8" opacity="0.5"/><text x="324.7" y="269" font-size="8.5" text-anchor="middle" fill="#8c4a3c" font-family="Georgia, serif">barrage</text><line x1="80" y1="272.0" x2="840" y2="272.0" stroke="#2f2a26" stroke-width="0.45" stroke-dasharray="2 4"/><text x="74" y="275.0" font-size="8" text-anchor="end" fill="#2f2a26" font-family="Georgia, serif">1.0</text><line x1="80" y1="404.0" x2="840" y2="404.0" stroke="#2f2a26" stroke-width="0.45" stroke-dasharray="2 4"/><text x="74" y="407.0" font-size="8" text-anchor="end" fill="#2f2a26" font-family="Georgia, serif">waver</text><line x1="80" y1="464.0" x2="840" y2="464.0" stroke="#2f2a26" stroke-width="0.45" stroke-dasharray="2 4"/><text x="74" y="467.0" font-size="8" text-anchor="end" fill="#2f2a26" font-family="Georgia, serif">snap</text><line x1="80" y1="512.0" x2="840" y2="512.0" stroke="#2f2a26" stroke-width="0.45" stroke-dasharray="2 4"/><text x="74" y="515.0" font-size="8" text-anchor="end" fill="#2f2a26" font-family="Georgia, serif">0</text><polyline points="80.0,331.4 92.9,349.7 105.8,366.2 118.6,357.4 131.5,350.5 144.4,334.2 157.3,349.5 170.2,306.6 183.1,311.4 195.9,329.1 208.8,372.5 221.7,389.2 234.6,417.0 247.5,459.9 260.3,459.4 273.2,446.1 286.1,427.3 299.0,412.5 311.9,446.2 324.7,432.1 337.6,421.6 350.5,413.8 363.4,409.8 376.3,432.9 389.2,427.9 402.0,443.0 414.9,406.7 427.8,444.7 440.7,446.4 453.6,406.3 466.4,397.1 479.3,372.7 492.2,375.8 505.1,382.8 518.0,365.4 530.8,338.5 543.7,349.0 556.6,305.5 569.5,293.9 582.4,304.0 595.3,338.2 608.1,327.3 621.0,334.9 633.9,352.7 646.8,350.2 659.7,359.0 672.5,390.7 685.4,396.3 698.3,388.0 711.2,367.8 724.1,388.4 736.9,362.1 749.8,397.1 762.7,369.6 775.6,337.9 788.5,330.4 801.4,308.4 814.2,338.3 827.1,358.4 840.0,358.1" fill="none" stroke="#8c4a3c" stroke-width="1.5" stroke-opacity="0.85"/><polyline points="80.0,272.0 92.9,272.0 105.8,314.2 118.6,310.8 131.5,315.1 144.4,343.2 157.3,315.0 170.2,340.9 183.1,322.1 195.9,335.1 208.8,376.1 221.7,360.8 234.6,397.4 247.5,433.9 260.3,443.4 273.2,447.7 286.1,470.0 299.0,458.0 311.9,446.0 324.7,434.0 337.6,422.0 350.5,410.0 363.4,382.2 376.3,395.6 389.2,431.4 402.0,417.4 414.9,449.2 427.8,411.8 440.7,373.3 453.6,376.2 466.4,389.0 479.3,359.6 492.2,347.4 505.1,322.4 518.0,341.2 530.8,333.5 543.7,333.9 556.6,338.0 569.5,321.0 582.4,341.4 595.3,323.1 608.1,354.3 621.0,324.9 633.9,346.8 646.8,356.1 659.7,386.5 672.5,357.4 685.4,342.1 698.3,346.6 711.2,333.9 724.1,370.9 736.9,381.4 749.8,394.9 762.7,400.8 775.6,395.4 788.5,385.8 801.4,360.7 814.2,315.9 827.1,334.4 840.0,332.1" fill="none" stroke="#3c6e8c" stroke-width="1.5" stroke-opacity="0.85"/><polyline points="80.0,313.6 92.9,322.7 105.8,300.5 118.6,341.0 131.5,344.3 144.4,373.8 157.3,306.3 170.2,361.5 183.1,372.0 195.9,322.3 208.8,384.1 221.7,428.1 234.6,444.6 247.5,438.4 260.3,461.8 273.2,472.7 286.1,460.7 299.0,448.7 311.9,436.7 324.7,424.7 337.6,412.7 350.5,435.0 363.4,434.7 376.3,441.8 389.2,427.7 402.0,439.0 414.9,414.0 427.8,426.3 440.7,444.0 453.6,399.3 466.4,372.4 479.3,392.5 492.2,383.1 505.1,371.6 518.0,361.7 530.8,324.4 543.7,353.8 556.6,342.1 569.5,336.0 582.4,319.9 595.3,336.9 608.1,308.8 621.0,331.8 633.9,338.6 646.8,353.5 659.7,350.8 672.5,340.2 685.4,319.6 698.3,298.0 711.2,318.3 724.1,320.0 736.9,301.5 749.8,321.2 762.7,335.6 775.6,359.1 788.5,346.0 801.4,304.7 814.2,322.2 827.1,323.7 840.0,339.2" fill="none" stroke="#6e8c3c" stroke-width="1.5" stroke-opacity="0.85"/><polyline points="80.0,326.4 92.9,340.6 105.8,340.7 118.6,350.3 131.5,334.6 144.4,371.3 157.3,365.2 170.2,338.6 183.1,357.4 195.9,380.6 208.8,362.4 221.7,376.0 234.6,377.0 247.5,366.5 260.3,380.1 273.2,380.8 286.1,365.6 299.0,337.4 311.9,363.0 324.7,355.5 337.6,345.4 350.5,353.4 363.4,336.0 376.3,367.9 389.2,353.3 402.0,357.1 414.9,393.0 427.8,392.1 440.7,379.5 453.6,373.4 466.4,369.3 479.3,376.6 492.2,417.9 505.1,372.7 518.0,379.5 530.8,364.9 543.7,364.3 556.6,352.2 569.5,336.7 582.4,353.9 595.3,356.8 608.1,348.4 621.0,337.0 633.9,342.6 646.8,324.2 659.7,305.8 672.5,307.6 685.4,337.4 698.3,357.0 711.2,364.7 724.1,375.3 736.9,350.5 749.8,364.0 762.7,363.8 775.6,347.9 788.5,345.8 801.4,321.4 814.2,343.8 827.1,367.0 840.0,363.0" fill="none" stroke="#8c3c6e" stroke-width="1.5" stroke-opacity="0.85"/><polyline points="80.0,319.3 92.9,336.6 105.8,353.8 118.6,327.9 131.5,337.2 144.4,357.5 157.3,407.5 170.2,380.5 183.1,407.6 195.9,379.6 208.8,357.9 221.7,344.3 234.6,354.4 247.5,377.4 260.3,407.7 273.2,410.0 286.1,400.2 299.0,353.5 311.9,377.8 324.7,402.7 337.6,383.3 350.5,355.2 363.4,380.1 376.3,368.1 389.2,364.8 402.0,373.5 414.9,385.8 427.8,396.4 440.7,388.6 453.6,394.9 466.4,391.2 479.3,392.2 492.2,340.6 505.1,342.2 518.0,351.6 530.8,368.5 543.7,373.0 556.6,331.8 569.5,332.9 582.4,373.7 595.3,420.1 608.1,369.9 621.0,363.9 633.9,358.7 646.8,355.9 659.7,349.7 672.5,338.6 685.4,317.0 698.3,322.0 711.2,279.4 724.1,302.1 736.9,364.3 749.8,363.2 762.7,362.3 775.6,379.8 788.5,388.0 801.4,354.3 814.2,392.2 827.1,401.3 840.0,388.0" fill="none" stroke="#b07a1f" stroke-width="1.5" stroke-opacity="0.85"/><polyline points="80.0,338.9 92.9,349.7 105.8,334.1 118.6,351.9 131.5,333.7 144.4,340.4 157.3,333.5 170.2,343.4 183.1,339.8 195.9,379.7 208.8,350.3 221.7,361.1 234.6,381.9 247.5,382.9 260.3,360.8 273.2,366.0 286.1,376.4 299.0,416.3 311.9,428.7 324.7,437.7 337.6,430.7 350.5,431.0 363.4,382.8 376.3,366.7 389.2,311.6 402.0,358.6 414.9,384.2 427.8,385.3 440.7,370.6 453.6,360.6 466.4,345.1 479.3,371.3 492.2,368.9 505.1,368.7 518.0,324.1 530.8,358.9 543.7,340.5 556.6,357.5 569.5,331.7 582.4,352.0 595.3,370.4 608.1,357.0 621.0,349.1 633.9,330.3 646.8,335.9 659.7,328.8 672.5,338.3 685.4,348.0 698.3,343.4 711.2,365.0 724.1,358.9 736.9,377.0 749.8,338.1 762.7,336.4 775.6,351.3 788.5,354.9 801.4,372.6 814.2,370.1 827.1,377.6 840.0,344.8" fill="none" stroke="#3c8c7a" stroke-width="1.5" stroke-opacity="0.85"/><text x="850" y="286" font-size="9" fill="#2f2a26" font-family="Georgia, serif">routed during run: 0</text><text x="850" y="302" font-size="9" fill="#2f2a26" font-family="Georgia, serif">in line at end: 6</text><text x="20" y="556" font-size="12" fill="#2f2a26" font-family="Georgia, serif" font-weight="bold">Exhibit 3 — Aliens: hive cohesion shrugs off the barrage; kill the Queen and it all ends at once</text><text x="20" y="570" font-size="12" fill="#2f2a26" font-family="Georgia, serif" font-weight="bold">loyalty</text><rect x="80" y="582" width="760" height="240" fill="white" stroke="#2f2a26" stroke-width="1.2"/><rect x="208.8" y="582" width="231.9" height="240" fill="#e8cfc8" opacity="0.5"/><text x="324.7" y="579" font-size="8.5" text-anchor="middle" fill="#8c4a3c" font-family="Georgia, serif">barrage</text><line x1="569.5" y1="582.0" x2="569.5" y2="822.0" stroke="#8c4a3c" stroke-width="1.6" stroke-dasharray="4 3"/><text x="569.5" y="579.0" font-size="8.5" text-anchor="middle" fill="#8c4a3c" font-family="Georgia, serif">Queen slain</text><line x1="80" y1="582.0" x2="840" y2="582.0" stroke="#2f2a26" stroke-width="0.45" stroke-dasharray="2 4"/><text x="74" y="585.0" font-size="8" text-anchor="end" fill="#2f2a26" font-family="Georgia, serif">1.0</text><line x1="80" y1="714.0" x2="840" y2="714.0" stroke="#2f2a26" stroke-width="0.45" stroke-dasharray="2 4"/><text x="74" y="717.0" font-size="8" text-anchor="end" fill="#2f2a26" font-family="Georgia, serif">waver</text><line x1="80" y1="774.0" x2="840" y2="774.0" stroke="#2f2a26" stroke-width="0.45" stroke-dasharray="2 4"/><text x="74" y="777.0" font-size="8" text-anchor="end" fill="#2f2a26" font-family="Georgia, serif">snap</text><line x1="80" y1="822.0" x2="840" y2="822.0" stroke="#2f2a26" stroke-width="0.45" stroke-dasharray="2 4"/><text x="74" y="825.0" font-size="8" text-anchor="end" fill="#2f2a26" font-family="Georgia, serif">0</text><polyline points="80.0,624.6 92.9,623.2 105.8,604.2 118.6,606.3 131.5,617.4 144.4,582.0 157.3,582.0 170.2,621.5 183.1,596.7 195.9,590.1 208.8,615.9 221.7,629.5 234.6,659.4 247.5,634.1 260.3,653.9 273.2,670.7 286.1,685.5 299.0,682.8 311.9,694.6 324.7,694.6 337.6,708.4 350.5,715.9 363.4,706.0 376.3,699.9 389.2,731.8 402.0,713.0 414.9,724.2 427.8,715.5 440.7,657.6 453.6,670.6 466.4,627.5 479.3,609.2 492.2,582.0 505.1,582.0 518.0,590.3 530.8,588.9 543.7,591.1 556.6,582.0 569.5,786.0 582.4,786.0 595.3,786.0 608.1,786.0 621.0,786.0 633.9,786.0 646.8,786.0 659.7,786.0 672.5,786.0 685.4,786.0 698.3,786.0 711.2,786.0 724.1,786.0 736.9,786.0 749.8,786.0 762.7,786.0 775.6,786.0 788.5,786.0 801.4,786.0 814.2,786.0 827.1,786.0 840.0,786.0" fill="none" stroke="#8c4a3c" stroke-width="1.5" stroke-opacity="0.85"/><polyline points="80.0,585.3 92.9,616.9 105.8,582.0 118.6,582.4 131.5,586.9 144.4,616.2 157.3,625.4 170.2,610.0 183.1,628.0 195.9,598.9 208.8,615.6 221.7,629.4 234.6,653.9 247.5,687.7 260.3,695.7 273.2,694.3 286.1,703.4 299.0,690.0 311.9,751.3 324.7,743.9 337.6,726.2 350.5,720.2 363.4,703.7 376.3,682.7 389.2,631.2 402.0,677.1 414.9,668.7 427.8,661.2 440.7,625.8 453.6,599.3 466.4,618.1 479.3,603.3 492.2,587.9 505.1,604.9 518.0,613.6 530.8,600.0 543.7,594.6 556.6,582.0 569.5,786.0 582.4,786.0 595.3,786.0 608.1,786.0 621.0,786.0 633.9,786.0 646.8,786.0 659.7,786.0 672.5,786.0 685.4,786.0 698.3,786.0 711.2,786.0 724.1,786.0 736.9,786.0 749.8,786.0 762.7,786.0 775.6,786.0 788.5,786.0 801.4,786.0 814.2,786.0 827.1,786.0 840.0,786.0" fill="none" stroke="#3c6e8c" stroke-width="1.5" stroke-opacity="0.85"/><polyline points="80.0,601.7 92.9,601.6 105.8,618.3 118.6,610.3 131.5,590.1 144.4,582.0 157.3,582.0 170.2,584.8 183.1,608.9 195.9,619.0 208.8,662.4 221.7,665.2 234.6,681.9 247.5,660.5 260.3,686.5 273.2,689.7 286.1,702.4 299.0,731.1 311.9,681.2 324.7,691.8 337.6,676.5 350.5,707.9 363.4,669.7 376.3,702.4 389.2,724.0 402.0,692.0 414.9,693.0 427.8,717.3 440.7,690.3 453.6,654.1 466.4,607.4 479.3,606.4 492.2,625.5 505.1,591.2 518.0,589.6 530.8,593.8 543.7,582.2 556.6,582.0 569.5,786.0 582.4,786.0 595.3,786.0 608.1,786.0 621.0,786.0 633.9,786.0 646.8,786.0 659.7,786.0 672.5,786.0 685.4,786.0 698.3,786.0 711.2,786.0 724.1,786.0 736.9,786.0 749.8,786.0 762.7,786.0 775.6,786.0 788.5,786.0 801.4,786.0 814.2,786.0 827.1,786.0 840.0,786.0" fill="none" stroke="#6e8c3c" stroke-width="1.5" stroke-opacity="0.85"/><polyline points="80.0,596.9 92.9,599.1 105.8,607.2 118.6,617.9 131.5,610.1 144.4,602.6 157.3,596.6 170.2,611.8 183.1,596.3 195.9,593.0 208.8,615.6 221.7,654.8 234.6,647.0 247.5,702.7 260.3,708.2 273.2,696.8 286.1,721.6 299.0,729.3 311.9,725.1 324.7,718.6 337.6,707.4 350.5,707.6 363.4,719.3 376.3,718.7 389.2,697.0 402.0,687.6 414.9,685.8 427.8,696.4 440.7,699.5 453.6,654.4 466.4,639.8 479.3,650.7 492.2,666.9 505.1,616.4 518.0,582.0 530.8,586.1 543.7,591.3 556.6,582.0 569.5,786.0 582.4,786.0 595.3,786.0 608.1,786.0 621.0,786.0 633.9,786.0 646.8,786.0 659.7,786.0 672.5,786.0 685.4,786.0 698.3,786.0 711.2,786.0 724.1,786.0 736.9,786.0 749.8,786.0 762.7,786.0 775.6,786.0 788.5,786.0 801.4,786.0 814.2,786.0 827.1,786.0 840.0,786.0" fill="none" stroke="#8c3c6e" stroke-width="1.5" stroke-opacity="0.85"/><polyline points="80.0,598.5 92.9,615.8 105.8,588.5 118.6,587.2 131.5,585.8 144.4,596.8 157.3,601.9 170.2,617.1 183.1,582.0 195.9,582.0 208.8,644.9 221.7,650.1 234.6,668.6 247.5,690.7 260.3,708.8 273.2,699.0 286.1,692.3 299.0,706.4 311.9,716.0 324.7,708.0 337.6,679.2 350.5,694.1 363.4,716.1 376.3,709.5 389.2,719.3 402.0,682.6 414.9,684.6 427.8,690.6 440.7,662.7 453.6,627.8 466.4,659.0 479.3,631.7 492.2,614.4 505.1,653.0 518.0,651.0 530.8,610.4 543.7,596.0 556.6,582.0 569.5,786.0 582.4,786.0 595.3,786.0 608.1,786.0 621.0,786.0 633.9,786.0 646.8,786.0 659.7,786.0 672.5,786.0 685.4,786.0 698.3,786.0 711.2,786.0 724.1,786.0 736.9,786.0 749.8,786.0 762.7,786.0 775.6,786.0 788.5,786.0 801.4,786.0 814.2,786.0 827.1,786.0 840.0,786.0" fill="none" stroke="#b07a1f" stroke-width="1.5" stroke-opacity="0.85"/><polyline points="80.0,599.2 92.9,582.0 105.8,587.6 118.6,582.0 131.5,584.9 144.4,585.4 157.3,582.0 170.2,602.2 183.1,582.0 195.9,600.4 208.8,586.8 221.7,609.2 234.6,603.6 247.5,624.9 260.3,591.3 273.2,606.6 286.1,603.6 299.0,626.4 311.9,634.2 324.7,638.7 337.6,613.9 350.5,593.2 363.4,597.3 376.3,613.7 389.2,612.2 402.0,600.3 414.9,588.7 427.8,603.6 440.7,582.0 453.6,584.9 466.4,582.0 479.3,582.0 492.2,598.6 505.1,614.0 518.0,600.0 530.8,607.4 543.7,594.4 556.6,609.4 569.5,813.4 582.4,813.4 595.3,813.4 608.1,813.4 621.0,813.4 633.9,813.4 646.8,813.4 659.7,813.4 672.5,813.4 685.4,813.4 698.3,813.4 711.2,813.4 724.1,813.4 736.9,813.4 749.8,813.4 762.7,813.4 775.6,813.4 788.5,813.4 801.4,813.4 814.2,813.4 827.1,813.4 840.0,813.4" fill="none" stroke="#3c8c7a" stroke-width="1.5" stroke-opacity="0.85"/><polyline points="80.0,582.0 92.9,582.0 105.8,582.0 118.6,610.5 131.5,620.2 144.4,621.0 157.3,595.3 170.2,616.2 183.1,587.6 195.9,582.0 208.8,595.1 221.7,586.8 234.6,596.4 247.5,592.8 260.3,623.5 273.2,603.8 286.1,609.3 299.0,594.6 311.9,611.2 324.7,607.7 337.6,621.0 350.5,621.7 363.4,594.9 376.3,586.8 389.2,641.6 402.0,618.9 414.9,627.8 427.8,634.0 440.7,613.3 453.6,582.0 466.4,588.7 479.3,594.8 492.2,593.1 505.1,615.6 518.0,595.6 530.8,613.0 543.7,619.1 556.6,616.6 569.5,820.6 582.4,820.6 595.3,820.6 608.1,820.6 621.0,820.6 633.9,820.6 646.8,820.6 659.7,820.6 672.5,820.6 685.4,820.6 698.3,820.6 711.2,820.6 724.1,820.6 736.9,820.6 749.8,820.6 762.7,820.6 775.6,820.6 788.5,820.6 801.4,820.6 814.2,820.6 827.1,820.6 840.0,820.6" fill="none" stroke="#7a3c8c" stroke-width="1.5" stroke-opacity="0.85"/><polyline points="80.0,617.4 92.9,586.9 105.8,590.5 118.6,605.2 131.5,611.8 144.4,606.9 157.3,582.0 170.2,582.0 183.1,582.0 195.9,595.8 208.8,590.4 221.7,586.8 234.6,615.9 247.5,596.6 260.3,586.8 273.2,589.1 286.1,586.8 299.0,586.8 311.9,586.8 324.7,602.0 337.6,624.2 350.5,609.2 363.4,592.5 376.3,609.1 389.2,622.6 402.0,621.3 414.9,632.0 427.8,599.9 440.7,585.7 453.6,582.0 466.4,586.7 479.3,594.3 492.2,589.5 505.1,582.0 518.0,600.9 530.8,582.0 543.7,584.9 556.6,582.0 569.5,786.0 582.4,786.0 595.3,786.0 608.1,786.0 621.0,786.0 633.9,786.0 646.8,786.0 659.7,786.0 672.5,786.0 685.4,786.0 698.3,786.0 711.2,786.0 724.1,786.0 736.9,786.0 749.8,786.0 762.7,786.0 775.6,786.0 788.5,786.0 801.4,786.0 814.2,786.0 827.1,786.0 840.0,786.0" fill="none" stroke="#4a6e3c" stroke-width="1.5" stroke-opacity="0.85"/><polyline points="80.0,582.0 92.9,582.0 105.8,589.7 118.6,582.0 131.5,616.2 144.4,586.8 157.3,582.0 170.2,582.0 183.1,595.4 195.9,582.0 208.8,588.2 221.7,586.8 234.6,606.7 247.5,627.4 260.3,662.7 273.2,660.2 286.1,670.1 299.0,660.8 311.9,643.9 324.7,636.5 337.6,623.5 350.5,586.8 363.4,586.8 376.3,627.9 389.2,620.7 402.0,617.0 414.9,616.4 427.8,608.6 440.7,591.8 453.6,608.5 466.4,582.0 479.3,582.0 492.2,625.7 505.1,653.6 518.0,642.0 530.8,645.1 543.7,592.0 556.6,608.8 569.5,812.8 582.4,812.8 595.3,812.8 608.1,812.8 621.0,812.8 633.9,812.8 646.8,812.8 659.7,812.8 672.5,812.8 685.4,812.8 698.3,812.8 711.2,812.8 724.1,812.8 736.9,812.8 749.8,812.8 762.7,812.8 775.6,812.8 788.5,812.8 801.4,812.8 814.2,812.8 827.1,812.8 840.0,812.8" fill="none" stroke="#6e3c4a" stroke-width="1.5" stroke-opacity="0.85"/><polyline points="80.0,627.7 92.9,614.2 105.8,614.5 118.6,589.7 131.5,582.0 144.4,598.7 157.3,582.0 170.2,582.0 183.1,582.0 195.9,582.0 208.8,618.0 221.7,586.8 234.6,586.8 247.5,586.8 260.3,586.8 273.2,586.8 286.1,586.8 299.0,586.8 311.9,586.8 324.7,586.8 337.6,608.1 350.5,608.1 363.4,586.8 376.3,605.0 389.2,614.2 402.0,586.8 414.9,591.7 427.8,592.9 440.7,610.1 453.6,591.3 466.4,609.6 479.3,621.0 492.2,615.3 505.1,632.6 518.0,619.4 530.8,619.0 543.7,614.3 556.6,582.0 569.5,786.0 582.4,786.0 595.3,786.0 608.1,786.0 621.0,786.0 633.9,786.0 646.8,786.0 659.7,786.0 672.5,786.0 685.4,786.0 698.3,786.0 711.2,786.0 724.1,786.0 736.9,786.0 749.8,786.0 762.7,786.0 775.6,786.0 788.5,786.0 801.4,786.0 814.2,786.0 827.1,786.0 840.0,786.0" fill="none" stroke="#3c4a8c" stroke-width="1.5" stroke-opacity="0.85"/><text x="850" y="596" font-size="9" fill="#2f2a26" font-family="Georgia, serif">feral at end: 10</text><text x="850" y="612" font-size="9" fill="#2f2a26" font-family="Georgia, serif">in line at end: 0</text></svg>